<svg height="880" width="1660" style="background-color:white">
<line x1="0" y1="110" x2="1660" y2="110" style="stroke:#898989;stroke-width:2" />
<line x1="0" y1="220" x2="1660" y2="220" style="stroke:#898989;stroke-width:2" />
<line x1="0" y1="330" x2="1660" y2="330" style="stroke:#898989;stroke-width:2" />
<line x1="0" y1="440" x2="1660" y2="440" style="stroke:#898989;stroke-width:2" />
<line x1="0" y1="550" x2="1660" y2="550" style="stroke:#898989;stroke-width:2" />
<line x1="0" y1="660" x2="1660" y2="660" style="stroke:#898989;stroke-width:2" />
<line x1="0" y1="770" x2="1660" y2="770" style="stroke:#898989;stroke-width:2" />
<line x1="100" y1="0" x2="100" y2="880" style="stroke:#898989;stroke-width:2" />
<text dominant-baseline = "central" font-size="10" style = "fill: #000000; " ><tspan x = "10" y = "37.0"> step=0
 </tspan><tspan x = "10" y = "49.0"> dis=0.00000
 </tspan><tspan x = "10" y = "61.0" > imp=1.00000
 </tspan><tspan x = "10" y = "73.0"> score=0.00000
 </tspan></text><text dominant-baseline = "central" font-size="10" style = "fill: #000000; " ><tspan x = "10" y = "147.0"> step=1
 </tspan><tspan x = "10" y = "159.0"> dis=0.00015
 </tspan><tspan x = "10" y = "171.0" > imp=0.99994
 </tspan><tspan x = "10" y = "183.0"> score=0.00031
 </tspan></text><text dominant-baseline = "central" font-size="10" style = "fill: #000000; " ><tspan x = "10" y = "257.0"> step=2
 </tspan><tspan x = "10" y = "269.0"> dis=0.00085
 </tspan><tspan x = "10" y = "281.0" > imp=0.99977
 </tspan><tspan x = "10" y = "293.0"> score=0.00169
 </tspan></text><text dominant-baseline = "central" font-size="10" style = "fill: #000000; " ><tspan x = "10" y = "367.0"> step=3
 </tspan><tspan x = "10" y = "379.0"> dis=0.00360
 </tspan><tspan x = "10" y = "391.0" > imp=0.99814
 </tspan><tspan x = "10" y = "403.0"> score=0.00718
 </tspan></text><text dominant-baseline = "central" font-size="10" style = "fill: #000000; " ><tspan x = "10" y = "477.0"> step=4
 </tspan><tspan x = "10" y = "489.0"> dis=0.00807
 </tspan><tspan x = "10" y = "501.0" > imp=0.99712
 </tspan><tspan x = "10" y = "513.0"> score=0.01602
 </tspan></text><text dominant-baseline = "central" font-size="10" style = "fill: #000000; " ><tspan x = "10" y = "587.0"> step=5
 </tspan><tspan x = "10" y = "599.0"> dis=0.04033
 </tspan><tspan x = "10" y = "611.0" > imp=0.98972
 </tspan><tspan x = "10" y = "623.0"> score=0.07750
 </tspan></text><text dominant-baseline = "central" font-size="10" style = "fill: #000000; " ><tspan x = "10" y = "697.0"> step=6
 </tspan><tspan x = "10" y = "709.0"> dis=0.11171
 </tspan><tspan x = "10" y = "721.0" > imp=0.98162
 </tspan><tspan x = "10" y = "733.0"> score=0.20059
 </tspan></text><line x1="165.0" y1="805" x2="165.0" y2="735" style="stroke:rgb(100,255,100);stroke-width:2" />
<rect x="134.16666666666666" y="767.5" width="61.66666666666667" height="5.0" fill="898989" stroke="black" stroke-width="1" />
<line x1="165.0" y1="695" x2="165.0" y2="625" style="stroke:rgb(100,255,100);stroke-width:2" />
<rect x="134.16666666666666" y="657.5" width="61.66666666666667" height="5.0" fill="898989" stroke="black" stroke-width="1" />
<line x1="165.0" y1="585" x2="165.0" y2="515" style="stroke:rgb(100,255,100);stroke-width:2" />
<rect x="134.16666666666666" y="547.5" width="61.66666666666667" height="5.0" fill="898989" stroke="black" stroke-width="1" />
<line x1="165.0" y1="475" x2="165.0" y2="405" style="stroke:rgb(100,255,100);stroke-width:2" />
<rect x="134.16666666666666" y="430.0" width="61.66666666666667" height="20.0" fill="898989" stroke="black" stroke-width="1" />
<text x="134.16666666666666" y="430.0" alignment-baseline="hanging" font-size="5.0"> (`tt:weekday`</text>
<text x="134.16666666666666" y="435.0" alignment-baseline="hanging" font-size="5.0">ELEMENT OF {'Fri',</text>
<text x="134.16666666666666" y="440.0" alignment-baseline="hanging" font-size="5.0">'Mon', 'Thu', 'Tue',</text>
<text x="134.16666666666666" y="445.0" alignment-baseline="hanging" font-size="5.0">'Wed'})</text>
<line x1="165.0" y1="365" x2="165.0" y2="295" style="stroke:rgb(100,255,100);stroke-width:2" />
<rect x="134.16666666666666" y="327.5" width="61.66666666666667" height="5.0" fill="898989" stroke="black" stroke-width="1" />
<line x1="165.0" y1="255" x2="165.0" y2="185" style="stroke:rgb(100,255,100);stroke-width:2" />
<rect x="134.16666666666666" y="210.0" width="61.66666666666667" height="20.0" fill="898989" stroke="black" stroke-width="1" />
<text x="134.16666666666666" y="210.0" alignment-baseline="hanging" font-size="5.0"> (`tt:weekday`</text>
<text x="134.16666666666666" y="215.0" alignment-baseline="hanging" font-size="5.0">ELEMENT OF {'Fri',</text>
<text x="134.16666666666666" y="220.0" alignment-baseline="hanging" font-size="5.0">'Mon', 'Sat', 'Thu',</text>
<text x="134.16666666666666" y="225.0" alignment-baseline="hanging" font-size="5.0">'Tue', 'Wed'})</text>
<line x1="165.0" y1="145" x2="349.84375" y2="75" style="stroke:rgb(100,255,100);stroke-width:2" />
<rect x="226.58854166666666" y="105.0" width="61.66666666666667" height="10.0" fill="898989" stroke="black" stroke-width="1" />
<text x="226.58854166666666" y="105.0" alignment-baseline="hanging" font-size="5.0"> (`at:phase` ELEMENT</text>
<text x="226.58854166666666" y="110.0" alignment-baseline="hanging" font-size="5.0">OF {'01_HOOFD_6'})</text>
<line x1="295.0" y1="805" x2="295.0" y2="735" style="stroke:rgb(100,255,100);stroke-width:2" />
<rect x="264.1666666666667" y="757.5" width="61.66666666666667" height="25.0" fill="898989" stroke="black" stroke-width="1" />
<text x="264.1666666666667" y="757.5" alignment-baseline="hanging" font-size="5.0"> (`at:phase` ELEMENT</text>
<text x="264.1666666666667" y="762.5" alignment-baseline="hanging" font-size="5.0">OF {'01_HOOFD_0',</text>
<text x="264.1666666666667" y="767.5" alignment-baseline="hanging" font-size="5.0">'01_HOOFD_1',</text>
<text x="264.1666666666667" y="772.5" alignment-baseline="hanging" font-size="5.0">'01_HOOFD_4',</text>
<text x="264.1666666666667" y="777.5" alignment-baseline="hanging" font-size="5.0">'01_HOOFD_5'})</text>
<line x1="295.0" y1="695" x2="295.0" y2="625" style="stroke:rgb(100,255,100);stroke-width:2" />
<rect x="264.1666666666667" y="645.0" width="61.66666666666667" height="30.0" fill="898989" stroke="black" stroke-width="1" />
<text x="264.1666666666667" y="645.0" alignment-baseline="hanging" font-size="5.0"> (`at:phase` ELEMENT</text>
<text x="264.1666666666667" y="650.0" alignment-baseline="hanging" font-size="5.0">OF {'01_HOOFD_0',</text>
<text x="264.1666666666667" y="655.0" alignment-baseline="hanging" font-size="5.0">'01_HOOFD_1',</text>
<text x="264.1666666666667" y="660.0" alignment-baseline="hanging" font-size="5.0">'01_HOOFD_3',</text>
<text x="264.1666666666667" y="665.0" alignment-baseline="hanging" font-size="5.0">'01_HOOFD_4',</text>
<text x="264.1666666666667" y="670.0" alignment-baseline="hanging" font-size="5.0">'01_HOOFD_5'})</text>
<line x1="295.0" y1="585" x2="295.0" y2="515" style="stroke:rgb(100,255,100);stroke-width:2" />
<rect x="264.1666666666667" y="532.5" width="61.66666666666667" height="35.0" fill="898989" stroke="black" stroke-width="1" />
<text x="264.1666666666667" y="532.5" alignment-baseline="hanging" font-size="5.0"> (`at:phase` ELEMENT</text>
<text x="264.1666666666667" y="537.5" alignment-baseline="hanging" font-size="5.0">OF {'01_HOOFD_0',</text>
<text x="264.1666666666667" y="542.5" alignment-baseline="hanging" font-size="5.0">'01_HOOFD_1',</text>
<text x="264.1666666666667" y="547.5" alignment-baseline="hanging" font-size="5.0">'01_HOOFD_2',</text>
<text x="264.1666666666667" y="552.5" alignment-baseline="hanging" font-size="5.0">'01_HOOFD_3',</text>
<text x="264.1666666666667" y="557.5" alignment-baseline="hanging" font-size="5.0">'01_HOOFD_4',</text>
<text x="264.1666666666667" y="562.5" alignment-baseline="hanging" font-size="5.0">'01_HOOFD_5'})</text>
<line x1="295.0" y1="475" x2="295.0" y2="405" style="stroke:rgb(100,255,100);stroke-width:2" />
<rect x="264.1666666666667" y="437.5" width="61.66666666666667" height="5.0" fill="898989" stroke="black" stroke-width="1" />
<line x1="295.0" y1="365" x2="295.0" y2="295" style="stroke:rgb(100,255,100);stroke-width:2" />
<rect x="264.1666666666667" y="310.0" width="61.66666666666667" height="40.0" fill="898989" stroke="black" stroke-width="1" />
<text x="264.1666666666667" y="310.0" alignment-baseline="hanging" font-size="5.0"> (`at:phase` ELEMENT</text>
<text x="264.1666666666667" y="315.0" alignment-baseline="hanging" font-size="5.0">OF {'01_HOOFD_0',</text>
<text x="264.1666666666667" y="320.0" alignment-baseline="hanging" font-size="5.0">'01_HOOFD_1',</text>
<text x="264.1666666666667" y="325.0" alignment-baseline="hanging" font-size="5.0">'01_HOOFD_2',</text>
<text x="264.1666666666667" y="330.0" alignment-baseline="hanging" font-size="5.0">'01_HOOFD_3',</text>
<text x="264.1666666666667" y="335.0" alignment-baseline="hanging" font-size="5.0">'01_HOOFD_4',</text>
<text x="264.1666666666667" y="340.0" alignment-baseline="hanging" font-size="5.0">'01_HOOFD_5',</text>
<text x="264.1666666666667" y="345.0" alignment-baseline="hanging" font-size="5.0">'01_HOOFD_8'})</text>
<line x1="295.0" y1="255" x2="534.6875" y2="185" style="stroke:rgb(100,255,100);stroke-width:2" />
<rect x="384.0104166666667" y="215.0" width="61.66666666666667" height="10.0" fill="898989" stroke="black" stroke-width="1" />
<text x="384.0104166666667" y="215.0" alignment-baseline="hanging" font-size="5.0"> (`tt:weekday`</text>
<text x="384.0104166666667" y="220.0" alignment-baseline="hanging" font-size="5.0">ELEMENT OF {'Sun'})</text>
<line x1="425.0" y1="805" x2="425.0" y2="735" style="stroke:rgb(100,255,100);stroke-width:2" />
<rect x="394.1666666666667" y="767.5" width="61.66666666666667" height="5.0" fill="898989" stroke="black" stroke-width="1" />
<line x1="425.0" y1="695" x2="425.0" y2="625" style="stroke:rgb(100,255,100);stroke-width:2" />
<rect x="394.1666666666667" y="657.5" width="61.66666666666667" height="5.0" fill="898989" stroke="black" stroke-width="1" />
<line x1="425.0" y1="585" x2="425.0" y2="515" style="stroke:rgb(100,255,100);stroke-width:2" />
<rect x="394.1666666666667" y="547.5" width="61.66666666666667" height="5.0" fill="898989" stroke="black" stroke-width="1" />
<line x1="425.0" y1="475" x2="490.0" y2="405" style="stroke:rgb(100,255,100);stroke-width:2" />
<rect x="426.6666666666667" y="435.0" width="61.66666666666667" height="10.0" fill="898989" stroke="black" stroke-width="1" />
<text x="426.6666666666667" y="435.0" alignment-baseline="hanging" font-size="5.0"> (`tt:weekday`</text>
<text x="426.6666666666667" y="440.0" alignment-baseline="hanging" font-size="5.0">ELEMENT OF {'Sat'})</text>
<line x1="555.0" y1="805" x2="555.0" y2="735" style="stroke:rgb(100,255,100);stroke-width:2" />
<rect x="524.1666666666666" y="767.5" width="61.66666666666667" height="5.0" fill="898989" stroke="black" stroke-width="1" />
<line x1="555.0" y1="695" x2="555.0" y2="625" style="stroke:rgb(100,255,100);stroke-width:2" />
<rect x="524.1666666666666" y="657.5" width="61.66666666666667" height="5.0" fill="898989" stroke="black" stroke-width="1" />
<line x1="555.0" y1="585" x2="555.0" y2="515" style="stroke:rgb(100,255,100);stroke-width:2" />
<rect x="524.1666666666666" y="547.5" width="61.66666666666667" height="5.0" fill="898989" stroke="black" stroke-width="1" />
<line x1="555.0" y1="475" x2="490.0" y2="405" style="stroke:rgb(100,255,100);stroke-width:2" />
<rect x="491.6666666666667" y="430.0" width="61.66666666666667" height="20.0" fill="898989" stroke="black" stroke-width="1" />
<text x="491.6666666666667" y="430.0" alignment-baseline="hanging" font-size="5.0"> (`tt:weekday`</text>
<text x="491.6666666666667" y="435.0" alignment-baseline="hanging" font-size="5.0">ELEMENT OF {'Fri',</text>
<text x="491.6666666666667" y="440.0" alignment-baseline="hanging" font-size="5.0">'Mon', 'Thu', 'Tue',</text>
<text x="491.6666666666667" y="445.0" alignment-baseline="hanging" font-size="5.0">'Wed'})</text>
<line x1="490.0" y1="365" x2="774.375" y2="295" style="stroke:rgb(100,255,100);stroke-width:2" />
<rect x="601.3541666666666" y="325.0" width="61.66666666666667" height="10.0" fill="898989" stroke="black" stroke-width="1" />
<text x="601.3541666666666" y="325.0" alignment-baseline="hanging" font-size="5.0"> (`at:phase` ELEMENT</text>
<text x="601.3541666666666" y="330.0" alignment-baseline="hanging" font-size="5.0">OF {'01_HOOFD_7'})</text>
<line x1="685.0" y1="805" x2="685.0" y2="735" style="stroke:rgb(100,255,100);stroke-width:2" />
<rect x="654.1666666666666" y="767.5" width="61.66666666666667" height="5.0" fill="898989" stroke="black" stroke-width="1" />
<line x1="685.0" y1="695" x2="685.0" y2="625" style="stroke:rgb(100,255,100);stroke-width:2" />
<rect x="654.1666666666666" y="657.5" width="61.66666666666667" height="5.0" fill="898989" stroke="black" stroke-width="1" />
<line x1="685.0" y1="585" x2="798.75" y2="515" style="stroke:rgb(100,255,100);stroke-width:2" />
<rect x="711.0416666666666" y="545.0" width="61.66666666666667" height="10.0" fill="898989" stroke="black" stroke-width="1" />
<text x="711.0416666666666" y="545.0" alignment-baseline="hanging" font-size="5.0"> (`at:phase` ELEMENT</text>
<text x="711.0416666666666" y="550.0" alignment-baseline="hanging" font-size="5.0">OF {'01_HOOFD_8'})</text>
<line x1="815.0" y1="805" x2="815.0" y2="735" style="stroke:rgb(100,255,100);stroke-width:2" />
<rect x="784.1666666666666" y="767.5" width="61.66666666666667" height="5.0" fill="898989" stroke="black" stroke-width="1" />
<line x1="815.0" y1="695" x2="912.5" y2="625" style="stroke:rgb(100,255,100);stroke-width:2" />
<rect x="832.9166666666666" y="655.0" width="61.66666666666667" height="10.0" fill="898989" stroke="black" stroke-width="1" />
<text x="832.9166666666666" y="655.0" alignment-baseline="hanging" font-size="5.0"> (`at:phase` ELEMENT</text>
<text x="832.9166666666666" y="660.0" alignment-baseline="hanging" font-size="5.0">OF {'01_HOOFD_2'})</text>
<line x1="945.0" y1="805" x2="1010.0" y2="735" style="stroke:rgb(100,255,100);stroke-width:2" />
<rect x="946.6666666666666" y="765.0" width="61.66666666666667" height="10.0" fill="898989" stroke="black" stroke-width="1" />
<text x="946.6666666666666" y="765.0" alignment-baseline="hanging" font-size="5.0"> (`at:phase` ELEMENT</text>
<text x="946.6666666666666" y="770.0" alignment-baseline="hanging" font-size="5.0">OF {'01_HOOFD_3'})</text>
<line x1="1075.0" y1="805" x2="1010.0" y2="735" style="stroke:rgb(100,255,100);stroke-width:2" />
<rect x="1011.6666666666666" y="757.5" width="61.66666666666667" height="25.0" fill="898989" stroke="black" stroke-width="1" />
<text x="1011.6666666666666" y="757.5" alignment-baseline="hanging" font-size="5.0"> (`at:phase` ELEMENT</text>
<text x="1011.6666666666666" y="762.5" alignment-baseline="hanging" font-size="5.0">OF {'01_HOOFD_0',</text>
<text x="1011.6666666666666" y="767.5" alignment-baseline="hanging" font-size="5.0">'01_HOOFD_1',</text>
<text x="1011.6666666666666" y="772.5" alignment-baseline="hanging" font-size="5.0">'01_HOOFD_4',</text>
<text x="1011.6666666666666" y="777.5" alignment-baseline="hanging" font-size="5.0">'01_HOOFD_5'})</text>
<line x1="1010.0" y1="695" x2="912.5" y2="625" style="stroke:rgb(100,255,100);stroke-width:2" />
<rect x="930.4166666666666" y="645.0" width="61.66666666666667" height="30.0" fill="898989" stroke="black" stroke-width="1" />
<text x="930.4166666666666" y="645.0" alignment-baseline="hanging" font-size="5.0"> (`at:phase` ELEMENT</text>
<text x="930.4166666666666" y="650.0" alignment-baseline="hanging" font-size="5.0">OF {'01_HOOFD_0',</text>
<text x="930.4166666666666" y="655.0" alignment-baseline="hanging" font-size="5.0">'01_HOOFD_1',</text>
<text x="930.4166666666666" y="660.0" alignment-baseline="hanging" font-size="5.0">'01_HOOFD_3',</text>
<text x="930.4166666666666" y="665.0" alignment-baseline="hanging" font-size="5.0">'01_HOOFD_4',</text>
<text x="930.4166666666666" y="670.0" alignment-baseline="hanging" font-size="5.0">'01_HOOFD_5'})</text>
<line x1="912.5" y1="585" x2="798.75" y2="515" style="stroke:rgb(100,255,100);stroke-width:2" />
<rect x="824.7916666666666" y="532.5" width="61.66666666666667" height="35.0" fill="898989" stroke="black" stroke-width="1" />
<text x="824.7916666666666" y="532.5" alignment-baseline="hanging" font-size="5.0"> (`at:phase` ELEMENT</text>
<text x="824.7916666666666" y="537.5" alignment-baseline="hanging" font-size="5.0">OF {'01_HOOFD_0',</text>
<text x="824.7916666666666" y="542.5" alignment-baseline="hanging" font-size="5.0">'01_HOOFD_1',</text>
<text x="824.7916666666666" y="547.5" alignment-baseline="hanging" font-size="5.0">'01_HOOFD_2',</text>
<text x="824.7916666666666" y="552.5" alignment-baseline="hanging" font-size="5.0">'01_HOOFD_3',</text>
<text x="824.7916666666666" y="557.5" alignment-baseline="hanging" font-size="5.0">'01_HOOFD_4',</text>
<text x="824.7916666666666" y="562.5" alignment-baseline="hanging" font-size="5.0">'01_HOOFD_5'})</text>
<line x1="798.75" y1="475" x2="1058.75" y2="405" style="stroke:rgb(100,255,100);stroke-width:2" />
<rect x="897.9166666666666" y="435.0" width="61.66666666666667" height="10.0" fill="898989" stroke="black" stroke-width="1" />
<text x="897.9166666666666" y="435.0" alignment-baseline="hanging" font-size="5.0"> (`tt:weekday`</text>
<text x="897.9166666666666" y="440.0" alignment-baseline="hanging" font-size="5.0">ELEMENT OF {'Sat'})</text>
<line x1="1205.0" y1="805" x2="1205.0" y2="735" style="stroke:rgb(100,255,100);stroke-width:2" />
<rect x="1174.1666666666667" y="767.5" width="61.66666666666667" height="5.0" fill="898989" stroke="black" stroke-width="1" />
<line x1="1205.0" y1="695" x2="1205.0" y2="625" style="stroke:rgb(100,255,100);stroke-width:2" />
<rect x="1174.1666666666667" y="657.5" width="61.66666666666667" height="5.0" fill="898989" stroke="black" stroke-width="1" />
<line x1="1205.0" y1="585" x2="1318.75" y2="515" style="stroke:rgb(100,255,100);stroke-width:2" />
<rect x="1231.0416666666667" y="545.0" width="61.66666666666667" height="10.0" fill="898989" stroke="black" stroke-width="1" />
<text x="1231.0416666666667" y="545.0" alignment-baseline="hanging" font-size="5.0"> (`at:phase` ELEMENT</text>
<text x="1231.0416666666667" y="550.0" alignment-baseline="hanging" font-size="5.0">OF {'01_HOOFD_8'})</text>
<line x1="1335.0" y1="805" x2="1335.0" y2="735" style="stroke:rgb(100,255,100);stroke-width:2" />
<rect x="1304.1666666666667" y="767.5" width="61.66666666666667" height="5.0" fill="898989" stroke="black" stroke-width="1" />
<line x1="1335.0" y1="695" x2="1432.5" y2="625" style="stroke:rgb(100,255,100);stroke-width:2" />
<rect x="1352.9166666666667" y="655.0" width="61.66666666666667" height="10.0" fill="898989" stroke="black" stroke-width="1" />
<text x="1352.9166666666667" y="655.0" alignment-baseline="hanging" font-size="5.0"> (`at:phase` ELEMENT</text>
<text x="1352.9166666666667" y="660.0" alignment-baseline="hanging" font-size="5.0">OF {'01_HOOFD_2'})</text>
<line x1="1465.0" y1="805" x2="1530.0" y2="735" style="stroke:rgb(100,255,100);stroke-width:2" />
<rect x="1466.6666666666667" y="765.0" width="61.66666666666667" height="10.0" fill="898989" stroke="black" stroke-width="1" />
<text x="1466.6666666666667" y="765.0" alignment-baseline="hanging" font-size="5.0"> (`at:phase` ELEMENT</text>
<text x="1466.6666666666667" y="770.0" alignment-baseline="hanging" font-size="5.0">OF {'01_HOOFD_3'})</text>
<line x1="1595.0" y1="805" x2="1530.0" y2="735" style="stroke:rgb(100,255,100);stroke-width:2" />
<rect x="1531.6666666666667" y="757.5" width="61.66666666666667" height="25.0" fill="898989" stroke="black" stroke-width="1" />
<text x="1531.6666666666667" y="757.5" alignment-baseline="hanging" font-size="5.0"> (`at:phase` ELEMENT</text>
<text x="1531.6666666666667" y="762.5" alignment-baseline="hanging" font-size="5.0">OF {'01_HOOFD_0',</text>
<text x="1531.6666666666667" y="767.5" alignment-baseline="hanging" font-size="5.0">'01_HOOFD_1',</text>
<text x="1531.6666666666667" y="772.5" alignment-baseline="hanging" font-size="5.0">'01_HOOFD_4',</text>
<text x="1531.6666666666667" y="777.5" alignment-baseline="hanging" font-size="5.0">'01_HOOFD_5'})</text>
<line x1="1530.0" y1="695" x2="1432.5" y2="625" style="stroke:rgb(100,255,100);stroke-width:2" />
<rect x="1450.4166666666667" y="645.0" width="61.66666666666667" height="30.0" fill="898989" stroke="black" stroke-width="1" />
<text x="1450.4166666666667" y="645.0" alignment-baseline="hanging" font-size="5.0"> (`at:phase` ELEMENT</text>
<text x="1450.4166666666667" y="650.0" alignment-baseline="hanging" font-size="5.0">OF {'01_HOOFD_0',</text>
<text x="1450.4166666666667" y="655.0" alignment-baseline="hanging" font-size="5.0">'01_HOOFD_1',</text>
<text x="1450.4166666666667" y="660.0" alignment-baseline="hanging" font-size="5.0">'01_HOOFD_3',</text>
<text x="1450.4166666666667" y="665.0" alignment-baseline="hanging" font-size="5.0">'01_HOOFD_4',</text>
<text x="1450.4166666666667" y="670.0" alignment-baseline="hanging" font-size="5.0">'01_HOOFD_5'})</text>
<line x1="1432.5" y1="585" x2="1318.75" y2="515" style="stroke:rgb(100,255,100);stroke-width:2" />
<rect x="1344.7916666666667" y="532.5" width="61.66666666666667" height="35.0" fill="898989" stroke="black" stroke-width="1" />
<text x="1344.7916666666667" y="532.5" alignment-baseline="hanging" font-size="5.0"> (`at:phase` ELEMENT</text>
<text x="1344.7916666666667" y="537.5" alignment-baseline="hanging" font-size="5.0">OF {'01_HOOFD_0',</text>
<text x="1344.7916666666667" y="542.5" alignment-baseline="hanging" font-size="5.0">'01_HOOFD_1',</text>
<text x="1344.7916666666667" y="547.5" alignment-baseline="hanging" font-size="5.0">'01_HOOFD_2',</text>
<text x="1344.7916666666667" y="552.5" alignment-baseline="hanging" font-size="5.0">'01_HOOFD_3',</text>
<text x="1344.7916666666667" y="557.5" alignment-baseline="hanging" font-size="5.0">'01_HOOFD_4',</text>
<text x="1344.7916666666667" y="562.5" alignment-baseline="hanging" font-size="5.0">'01_HOOFD_5'})</text>
<line x1="1318.75" y1="475" x2="1058.75" y2="405" style="stroke:rgb(100,255,100);stroke-width:2" />
<rect x="1157.9166666666667" y="430.0" width="61.66666666666667" height="20.0" fill="898989" stroke="black" stroke-width="1" />
<text x="1157.9166666666667" y="430.0" alignment-baseline="hanging" font-size="5.0"> (`tt:weekday`</text>
<text x="1157.9166666666667" y="435.0" alignment-baseline="hanging" font-size="5.0">ELEMENT OF {'Fri',</text>
<text x="1157.9166666666667" y="440.0" alignment-baseline="hanging" font-size="5.0">'Mon', 'Thu', 'Tue',</text>
<text x="1157.9166666666667" y="445.0" alignment-baseline="hanging" font-size="5.0">'Wed'})</text>
<line x1="1058.75" y1="365" x2="774.375" y2="295" style="stroke:rgb(100,255,100);stroke-width:2" />
<rect x="885.7291666666666" y="310.0" width="61.66666666666667" height="40.0" fill="898989" stroke="black" stroke-width="1" />
<text x="885.7291666666666" y="310.0" alignment-baseline="hanging" font-size="5.0"> (`at:phase` ELEMENT</text>
<text x="885.7291666666666" y="315.0" alignment-baseline="hanging" font-size="5.0">OF {'01_HOOFD_0',</text>
<text x="885.7291666666666" y="320.0" alignment-baseline="hanging" font-size="5.0">'01_HOOFD_1',</text>
<text x="885.7291666666666" y="325.0" alignment-baseline="hanging" font-size="5.0">'01_HOOFD_2',</text>
<text x="885.7291666666666" y="330.0" alignment-baseline="hanging" font-size="5.0">'01_HOOFD_3',</text>
<text x="885.7291666666666" y="335.0" alignment-baseline="hanging" font-size="5.0">'01_HOOFD_4',</text>
<text x="885.7291666666666" y="340.0" alignment-baseline="hanging" font-size="5.0">'01_HOOFD_5',</text>
<text x="885.7291666666666" y="345.0" alignment-baseline="hanging" font-size="5.0">'01_HOOFD_8'})</text>
<line x1="774.375" y1="255" x2="534.6875" y2="185" style="stroke:rgb(100,255,100);stroke-width:2" />
<rect x="623.6979166666666" y="210.0" width="61.66666666666667" height="20.0" fill="898989" stroke="black" stroke-width="1" />
<text x="623.6979166666666" y="210.0" alignment-baseline="hanging" font-size="5.0"> (`tt:weekday`</text>
<text x="623.6979166666666" y="215.0" alignment-baseline="hanging" font-size="5.0">ELEMENT OF {'Fri',</text>
<text x="623.6979166666666" y="220.0" alignment-baseline="hanging" font-size="5.0">'Mon', 'Sat', 'Thu',</text>
<text x="623.6979166666666" y="225.0" alignment-baseline="hanging" font-size="5.0">'Tue', 'Wed'})</text>
<line x1="534.6875" y1="145" x2="349.84375" y2="75" style="stroke:rgb(100,255,100);stroke-width:2" />
<rect x="411.4322916666667" y="87.5" width="61.66666666666667" height="45.0" fill="898989" stroke="black" stroke-width="1" />
<text x="411.4322916666667" y="87.5" alignment-baseline="hanging" font-size="5.0"> (`at:phase` ELEMENT</text>
<text x="411.4322916666667" y="92.5" alignment-baseline="hanging" font-size="5.0">OF {'01_HOOFD_0',</text>
<text x="411.4322916666667" y="97.5" alignment-baseline="hanging" font-size="5.0">'01_HOOFD_1',</text>
<text x="411.4322916666667" y="102.5" alignment-baseline="hanging" font-size="5.0">'01_HOOFD_2',</text>
<text x="411.4322916666667" y="107.5" alignment-baseline="hanging" font-size="5.0">'01_HOOFD_3',</text>
<text x="411.4322916666667" y="112.5" alignment-baseline="hanging" font-size="5.0">'01_HOOFD_4',</text>
<text x="411.4322916666667" y="117.5" alignment-baseline="hanging" font-size="5.0">'01_HOOFD_5',</text>
<text x="411.4322916666667" y="122.5" alignment-baseline="hanging" font-size="5.0">'01_HOOFD_7',</text>
<text x="411.4322916666667" y="127.5" alignment-baseline="hanging" font-size="5.0">'01_HOOFD_8'})</text>
<rect x="115" y="805" width="100" height="40" rx="5" ry="5" style="fill:#DBEEF4;stroke-width:3;stroke:rgb(0,0,0)"
/><text x="165.0" y="815.0" font-size="10" text-anchor="middle" alignment-baseline="middle">label=1792</text>
<text x="165.0" y="835.0" font-size="10" text-anchor="middle" alignment-baseline="middle">n_items=15</text>
<rect x="115" y="695" width="100" height="40" rx="5" ry="5" style="fill:#DBEEF4;stroke-width:3;stroke:rgb(0,0,0)"
/><text x="165.0" y="705.0" font-size="10" text-anchor="middle" alignment-baseline="middle">label=1792</text>
<text x="165.0" y="725.0" font-size="10" text-anchor="middle" alignment-baseline="middle">n_items=15</text>
<rect x="115" y="585" width="100" height="40" rx="5" ry="5" style="fill:#DBEEF4;stroke-width:3;stroke:rgb(0,0,0)"
/><text x="165.0" y="595.0" font-size="10" text-anchor="middle" alignment-baseline="middle">label=1792</text>
<text x="165.0" y="615.0" font-size="10" text-anchor="middle" alignment-baseline="middle">n_items=15</text>
<rect x="115" y="475" width="100" height="40" rx="5" ry="5" style="fill:#DBEEF4;stroke-width:3;stroke:rgb(0,0,0)"
/><text x="165.0" y="485.0" font-size="10" text-anchor="middle" alignment-baseline="middle">label=1792</text>
<text x="165.0" y="505.0" font-size="10" text-anchor="middle" alignment-baseline="middle">n_items=15</text>
<rect x="115" y="365" width="100" height="40" rx="5" ry="5" style="fill:#DBEEF4;stroke-width:3;stroke:rgb(0,0,0)"
/><text x="165.0" y="375.0" font-size="10" text-anchor="middle" alignment-baseline="middle">label=809</text>
<text x="165.0" y="395.0" font-size="10" text-anchor="middle" alignment-baseline="middle">n_items=15</text>
<rect x="115" y="255" width="100" height="40" rx="5" ry="5" style="fill:#DBEEF4;stroke-width:3;stroke:rgb(0,0,0)"
/><text x="165.0" y="265.0" font-size="10" text-anchor="middle" alignment-baseline="middle">label=809</text>
<text x="165.0" y="285.0" font-size="10" text-anchor="middle" alignment-baseline="middle">n_items=15</text>
<rect x="115" y="145" width="100" height="40" rx="5" ry="5" style="fill:#DBEEF4;stroke-width:3;stroke:rgb(0,0,0)"
/><text x="165.0" y="155.0" font-size="10" text-anchor="middle" alignment-baseline="middle">label=339</text>
<text x="165.0" y="175.0" font-size="10" text-anchor="middle" alignment-baseline="middle">n_items=15</text>
<rect x="245" y="805" width="100" height="40" rx="5" ry="5" style="fill:#DBEEF4;stroke-width:3;stroke:rgb(0,0,0)"
/><text x="295.0" y="815.0" font-size="10" text-anchor="middle" alignment-baseline="middle">label=2991</text>
<text x="295.0" y="835.0" font-size="10" text-anchor="middle" alignment-baseline="middle">n_items=149</text>
<rect x="245" y="695" width="100" height="40" rx="5" ry="5" style="fill:#DBEEF4;stroke-width:3;stroke:rgb(0,0,0)"
/><text x="295.0" y="705.0" font-size="10" text-anchor="middle" alignment-baseline="middle">label=2668</text>
<text x="295.0" y="725.0" font-size="10" text-anchor="middle" alignment-baseline="middle">n_items=149</text>
<rect x="245" y="585" width="100" height="40" rx="5" ry="5" style="fill:#DBEEF4;stroke-width:3;stroke:rgb(0,0,0)"
/><text x="295.0" y="595.0" font-size="10" text-anchor="middle" alignment-baseline="middle">label=2299</text>
<text x="295.0" y="615.0" font-size="10" text-anchor="middle" alignment-baseline="middle">n_items=149</text>
<rect x="245" y="475" width="100" height="40" rx="5" ry="5" style="fill:#DBEEF4;stroke-width:3;stroke:rgb(0,0,0)"
/><text x="295.0" y="485.0" font-size="10" text-anchor="middle" alignment-baseline="middle">label=1331</text>
<text x="295.0" y="505.0" font-size="10" text-anchor="middle" alignment-baseline="middle">n_items=149</text>
<rect x="245" y="365" width="100" height="40" rx="5" ry="5" style="fill:#DBEEF4;stroke-width:3;stroke:rgb(0,0,0)"
/><text x="295.0" y="375.0" font-size="10" text-anchor="middle" alignment-baseline="middle">label=1331</text>
<text x="295.0" y="395.0" font-size="10" text-anchor="middle" alignment-baseline="middle">n_items=149</text>
<rect x="245" y="255" width="100" height="40" rx="5" ry="5" style="fill:#DBEEF4;stroke-width:3;stroke:rgb(0,0,0)"
/><text x="295.0" y="265.0" font-size="10" text-anchor="middle" alignment-baseline="middle">label=810</text>
<text x="295.0" y="285.0" font-size="10" text-anchor="middle" alignment-baseline="middle">n_items=149</text>
<rect x="375" y="805" width="100" height="40" rx="5" ry="5" style="fill:#DBEEF4;stroke-width:3;stroke:rgb(0,0,0)"
/><text x="425.0" y="815.0" font-size="10" text-anchor="middle" alignment-baseline="middle">label=1793</text>
<text x="425.0" y="835.0" font-size="10" text-anchor="middle" alignment-baseline="middle">n_items=2</text>
<rect x="375" y="695" width="100" height="40" rx="5" ry="5" style="fill:#DBEEF4;stroke-width:3;stroke:rgb(0,0,0)"
/><text x="425.0" y="705.0" font-size="10" text-anchor="middle" alignment-baseline="middle">label=1793</text>
<text x="425.0" y="725.0" font-size="10" text-anchor="middle" alignment-baseline="middle">n_items=2</text>
<rect x="375" y="585" width="100" height="40" rx="5" ry="5" style="fill:#DBEEF4;stroke-width:3;stroke:rgb(0,0,0)"
/><text x="425.0" y="595.0" font-size="10" text-anchor="middle" alignment-baseline="middle">label=1793</text>
<text x="425.0" y="615.0" font-size="10" text-anchor="middle" alignment-baseline="middle">n_items=2</text>
<rect x="375" y="475" width="100" height="40" rx="5" ry="5" style="fill:#DBEEF4;stroke-width:3;stroke:rgb(0,0,0)"
/><text x="425.0" y="485.0" font-size="10" text-anchor="middle" alignment-baseline="middle">label=1793</text>
<text x="425.0" y="505.0" font-size="10" text-anchor="middle" alignment-baseline="middle">n_items=2</text>
<rect x="505" y="805" width="100" height="40" rx="5" ry="5" style="fill:#DBEEF4;stroke-width:3;stroke:rgb(0,0,0)"
/><text x="555.0" y="815.0" font-size="10" text-anchor="middle" alignment-baseline="middle">label=1794</text>
<text x="555.0" y="835.0" font-size="10" text-anchor="middle" alignment-baseline="middle">n_items=585</text>
<rect x="505" y="695" width="100" height="40" rx="5" ry="5" style="fill:#DBEEF4;stroke-width:3;stroke:rgb(0,0,0)"
/><text x="555.0" y="705.0" font-size="10" text-anchor="middle" alignment-baseline="middle">label=1794</text>
<text x="555.0" y="725.0" font-size="10" text-anchor="middle" alignment-baseline="middle">n_items=585</text>
<rect x="505" y="585" width="100" height="40" rx="5" ry="5" style="fill:#DBEEF4;stroke-width:3;stroke:rgb(0,0,0)"
/><text x="555.0" y="595.0" font-size="10" text-anchor="middle" alignment-baseline="middle">label=1794</text>
<text x="555.0" y="615.0" font-size="10" text-anchor="middle" alignment-baseline="middle">n_items=585</text>
<rect x="505" y="475" width="100" height="40" rx="5" ry="5" style="fill:#DBEEF4;stroke-width:3;stroke:rgb(0,0,0)"
/><text x="555.0" y="485.0" font-size="10" text-anchor="middle" alignment-baseline="middle">label=1794</text>
<text x="555.0" y="505.0" font-size="10" text-anchor="middle" alignment-baseline="middle">n_items=585</text>
<rect x="440.0" y="365" width="100" height="40" rx="5" ry="5" style="fill:#DBEEF4;stroke-width:3;stroke:rgb(0,0,0)"
/><text x="490.0" y="375.0" font-size="10" text-anchor="middle" alignment-baseline="middle">label=1332</text>
<text x="490.0" y="395.0" font-size="10" text-anchor="middle" alignment-baseline="middle">n_items=587</text>
<rect x="635" y="805" width="100" height="40" rx="5" ry="5" style="fill:#DBEEF4;stroke-width:3;stroke:rgb(0,0,0)"
/><text x="685.0" y="815.0" font-size="10" text-anchor="middle" alignment-baseline="middle">label=2300</text>
<text x="685.0" y="835.0" font-size="10" text-anchor="middle" alignment-baseline="middle">n_items=10</text>
<rect x="635" y="695" width="100" height="40" rx="5" ry="5" style="fill:#DBEEF4;stroke-width:3;stroke:rgb(0,0,0)"
/><text x="685.0" y="705.0" font-size="10" text-anchor="middle" alignment-baseline="middle">label=2300</text>
<text x="685.0" y="725.0" font-size="10" text-anchor="middle" alignment-baseline="middle">n_items=10</text>
<rect x="635" y="585" width="100" height="40" rx="5" ry="5" style="fill:#DBEEF4;stroke-width:3;stroke:rgb(0,0,0)"
/><text x="685.0" y="595.0" font-size="10" text-anchor="middle" alignment-baseline="middle">label=2300</text>
<text x="685.0" y="615.0" font-size="10" text-anchor="middle" alignment-baseline="middle">n_items=10</text>
<rect x="765" y="805" width="100" height="40" rx="5" ry="5" style="fill:#DBEEF4;stroke-width:3;stroke:rgb(0,0,0)"
/><text x="815.0" y="815.0" font-size="10" text-anchor="middle" alignment-baseline="middle">label=2669</text>
<text x="815.0" y="835.0" font-size="10" text-anchor="middle" alignment-baseline="middle">n_items=41</text>
<rect x="765" y="695" width="100" height="40" rx="5" ry="5" style="fill:#DBEEF4;stroke-width:3;stroke:rgb(0,0,0)"
/><text x="815.0" y="705.0" font-size="10" text-anchor="middle" alignment-baseline="middle">label=2669</text>
<text x="815.0" y="725.0" font-size="10" text-anchor="middle" alignment-baseline="middle">n_items=41</text>
<rect x="895" y="805" width="100" height="40" rx="5" ry="5" style="fill:#DBEEF4;stroke-width:3;stroke:rgb(0,0,0)"
/><text x="945.0" y="815.0" font-size="10" text-anchor="middle" alignment-baseline="middle">label=2992</text>
<text x="945.0" y="835.0" font-size="10" text-anchor="middle" alignment-baseline="middle">n_items=49</text>
<rect x="1025" y="805" width="100" height="40" rx="5" ry="5" style="fill:#DBEEF4;stroke-width:3;stroke:rgb(0,0,0)"
/><text x="1075.0" y="815.0" font-size="10" text-anchor="middle" alignment-baseline="middle">label=2993</text>
<text x="1075.0" y="835.0" font-size="10" text-anchor="middle" alignment-baseline="middle">n_items=778</text>
<rect x="960.0" y="695" width="100" height="40" rx="5" ry="5" style="fill:#DBEEF4;stroke-width:3;stroke:rgb(0,0,0)"
/><text x="1010.0" y="705.0" font-size="10" text-anchor="middle" alignment-baseline="middle">label=2670</text>
<text x="1010.0" y="725.0" font-size="10" text-anchor="middle" alignment-baseline="middle">n_items=827</text>
<rect x="862.5" y="585" width="100" height="40" rx="5" ry="5" style="fill:#DBEEF4;stroke-width:3;stroke:rgb(0,0,0)"
/><text x="912.5" y="595.0" font-size="10" text-anchor="middle" alignment-baseline="middle">label=2301</text>
<text x="912.5" y="615.0" font-size="10" text-anchor="middle" alignment-baseline="middle">n_items=868</text>
<rect x="748.75" y="475" width="100" height="40" rx="5" ry="5" style="fill:#DBEEF4;stroke-width:3;stroke:rgb(0,0,0)"
/><text x="798.75" y="485.0" font-size="10" text-anchor="middle" alignment-baseline="middle">label=1795</text>
<text x="798.75" y="505.0" font-size="10" text-anchor="middle" alignment-baseline="middle">n_items=878</text>
<rect x="1155" y="805" width="100" height="40" rx="5" ry="5" style="fill:#DBEEF4;stroke-width:3;stroke:rgb(0,0,0)"
/><text x="1205.0" y="815.0" font-size="10" text-anchor="middle" alignment-baseline="middle">label=2302</text>
<text x="1205.0" y="835.0" font-size="10" text-anchor="middle" alignment-baseline="middle">n_items=6871</text>
<rect x="1155" y="695" width="100" height="40" rx="5" ry="5" style="fill:#DBEEF4;stroke-width:3;stroke:rgb(0,0,0)"
/><text x="1205.0" y="705.0" font-size="10" text-anchor="middle" alignment-baseline="middle">label=2302</text>
<text x="1205.0" y="725.0" font-size="10" text-anchor="middle" alignment-baseline="middle">n_items=6871</text>
<rect x="1155" y="585" width="100" height="40" rx="5" ry="5" style="fill:#DBEEF4;stroke-width:3;stroke:rgb(0,0,0)"
/><text x="1205.0" y="595.0" font-size="10" text-anchor="middle" alignment-baseline="middle">label=2302</text>
<text x="1205.0" y="615.0" font-size="10" text-anchor="middle" alignment-baseline="middle">n_items=6871</text>
<rect x="1285" y="805" width="100" height="40" rx="5" ry="5" style="fill:#DBEEF4;stroke-width:3;stroke:rgb(0,0,0)"
/><text x="1335.0" y="815.0" font-size="10" text-anchor="middle" alignment-baseline="middle">label=2671</text>
<text x="1335.0" y="835.0" font-size="10" text-anchor="middle" alignment-baseline="middle">n_items=16451</text>
<rect x="1285" y="695" width="100" height="40" rx="5" ry="5" style="fill:#DBEEF4;stroke-width:3;stroke:rgb(0,0,0)"
/><text x="1335.0" y="705.0" font-size="10" text-anchor="middle" alignment-baseline="middle">label=2671</text>
<text x="1335.0" y="725.0" font-size="10" text-anchor="middle" alignment-baseline="middle">n_items=16451</text>
<rect x="1415" y="805" width="100" height="40" rx="5" ry="5" style="fill:#DBEEF4;stroke-width:3;stroke:rgb(0,0,0)"
/><text x="1465.0" y="815.0" font-size="10" text-anchor="middle" alignment-baseline="middle">label=2994</text>
<text x="1465.0" y="835.0" font-size="10" text-anchor="middle" alignment-baseline="middle">n_items=17836</text>
<rect x="1545" y="805" width="100" height="40" rx="5" ry="5" style="fill:#DBEEF4;stroke-width:3;stroke:rgb(0,0,0)"
/><text x="1595.0" y="815.0" font-size="10" text-anchor="middle" alignment-baseline="middle">label=2995</text>
<text x="1595.0" y="835.0" font-size="10" text-anchor="middle" alignment-baseline="middle">n_items=150666</text>
<rect x="1480.0" y="695" width="100" height="40" rx="5" ry="5" style="fill:#DBEEF4;stroke-width:3;stroke:rgb(0,0,0)"
/><text x="1530.0" y="705.0" font-size="10" text-anchor="middle" alignment-baseline="middle">label=2672</text>
<text x="1530.0" y="725.0" font-size="10" text-anchor="middle" alignment-baseline="middle">n_items=168502</text>
<rect x="1382.5" y="585" width="100" height="40" rx="5" ry="5" style="fill:#DBEEF4;stroke-width:3;stroke:rgb(0,0,0)"
/><text x="1432.5" y="595.0" font-size="10" text-anchor="middle" alignment-baseline="middle">label=2303</text>
<text x="1432.5" y="615.0" font-size="10" text-anchor="middle" alignment-baseline="middle">n_items=184953</text>
<rect x="1268.75" y="475" width="100" height="40" rx="5" ry="5" style="fill:#DBEEF4;stroke-width:3;stroke:rgb(0,0,0)"
/><text x="1318.75" y="485.0" font-size="10" text-anchor="middle" alignment-baseline="middle">label=1796</text>
<text x="1318.75" y="505.0" font-size="10" text-anchor="middle" alignment-baseline="middle">n_items=191824</text>
<rect x="1008.75" y="365" width="100" height="40" rx="5" ry="5" style="fill:#DBEEF4;stroke-width:3;stroke:rgb(0,0,0)"
/><text x="1058.75" y="375.0" font-size="10" text-anchor="middle" alignment-baseline="middle">label=1333</text>
<text x="1058.75" y="395.0" font-size="10" text-anchor="middle" alignment-baseline="middle">n_items=192702</text>
<rect x="724.375" y="255" width="100" height="40" rx="5" ry="5" style="fill:#DBEEF4;stroke-width:3;stroke:rgb(0,0,0)"
/><text x="774.375" y="265.0" font-size="10" text-anchor="middle" alignment-baseline="middle">label=811</text>
<text x="774.375" y="285.0" font-size="10" text-anchor="middle" alignment-baseline="middle">n_items=193289</text>
<rect x="484.6875" y="145" width="100" height="40" rx="5" ry="5" style="fill:#DBEEF4;stroke-width:3;stroke:rgb(0,0,0)"
/><text x="534.6875" y="155.0" font-size="10" text-anchor="middle" alignment-baseline="middle">label=340</text>
<text x="534.6875" y="175.0" font-size="10" text-anchor="middle" alignment-baseline="middle">n_items=193438</text>
<rect x="299.84375" y="35" width="100" height="40" rx="5" ry="5" style="fill:#DBEEF4;stroke-width:3;stroke:rgb(0,0,0)"
/><text x="349.84375" y="45.0" font-size="10" text-anchor="middle" alignment-baseline="middle">label=0</text>
<text x="349.84375" y="65.0" font-size="10" text-anchor="middle" alignment-baseline="middle">n_items=193453</text>
  SVG not supported
</svg>