<svg height="880" width="1660" style="background-color:white">
<line x1="0" y1="110" x2="1660" y2="110" style="stroke:#898989;stroke-width:2" />
<line x1="0" y1="220" x2="1660" y2="220" style="stroke:#898989;stroke-width:2" />
<line x1="0" y1="330" x2="1660" y2="330" style="stroke:#898989;stroke-width:2" />
<line x1="0" y1="440" x2="1660" y2="440" style="stroke:#898989;stroke-width:2" />
<line x1="0" y1="550" x2="1660" y2="550" style="stroke:#898989;stroke-width:2" />
<line x1="0" y1="660" x2="1660" y2="660" style="stroke:#898989;stroke-width:2" />
<line x1="0" y1="770" x2="1660" y2="770" style="stroke:#898989;stroke-width:2" />
<line x1="100" y1="0" x2="100" y2="880" style="stroke:#898989;stroke-width:2" />
<text dominant-baseline = "central" font-size="10" style = "fill: #000000; " ><tspan x = "10" y = "37.0"> step=0
 </tspan><tspan x = "10" y = "49.0"> dis=0.00000
 </tspan><tspan x = "10" y = "61.0" > imp=1.00000
 </tspan><tspan x = "10" y = "73.0"> score=0.00000
 </tspan></text><text dominant-baseline = "central" font-size="10" style = "fill: #000000; " ><tspan x = "10" y = "147.0"> step=1
 </tspan><tspan x = "10" y = "159.0"> dis=0.00154
 </tspan><tspan x = "10" y = "171.0" > imp=0.99983
 </tspan><tspan x = "10" y = "183.0"> score=0.00307
 </tspan></text><text dominant-baseline = "central" font-size="10" style = "fill: #000000; " ><tspan x = "10" y = "257.0"> step=2
 </tspan><tspan x = "10" y = "269.0"> dis=0.01048
 </tspan><tspan x = "10" y = "281.0" > imp=0.99881
 </tspan><tspan x = "10" y = "293.0"> score=0.02074
 </tspan></text><text dominant-baseline = "central" font-size="10" style = "fill: #000000; " ><tspan x = "10" y = "367.0"> step=3
 </tspan><tspan x = "10" y = "379.0"> dis=0.00807
 </tspan><tspan x = "10" y = "391.0" > imp=0.99720
 </tspan><tspan x = "10" y = "403.0"> score=0.01601
 </tspan></text><text dominant-baseline = "central" font-size="10" style = "fill: #000000; " ><tspan x = "10" y = "477.0"> step=4
 </tspan><tspan x = "10" y = "489.0"> dis=0.00807
 </tspan><tspan x = "10" y = "501.0" > imp=0.99712
 </tspan><tspan x = "10" y = "513.0"> score=0.01602
 </tspan></text><text dominant-baseline = "central" font-size="10" style = "fill: #000000; " ><tspan x = "10" y = "587.0"> step=5
 </tspan><tspan x = "10" y = "599.0"> dis=0.04033
 </tspan><tspan x = "10" y = "611.0" > imp=0.98972
 </tspan><tspan x = "10" y = "623.0"> score=0.07750
 </tspan></text><text dominant-baseline = "central" font-size="10" style = "fill: #000000; " ><tspan x = "10" y = "697.0"> step=6
 </tspan><tspan x = "10" y = "709.0"> dis=0.11171
 </tspan><tspan x = "10" y = "721.0" > imp=0.98162
 </tspan><tspan x = "10" y = "733.0"> score=0.20059
 </tspan></text><line x1="165.0" y1="805" x2="165.0" y2="735" style="stroke:rgb(100,255,100);stroke-width:2" />
<rect x="134.16666666666666" y="757.5" width="61.66666666666667" height="25.0" fill="898989" stroke="black" stroke-width="1" />
<text x="134.16666666666666" y="757.5" alignment-baseline="hanging" font-size="5.0"> (`at:phase` ELEMENT</text>
<text x="134.16666666666666" y="762.5" alignment-baseline="hanging" font-size="5.0">OF {'01_HOOFD_0',</text>
<text x="134.16666666666666" y="767.5" alignment-baseline="hanging" font-size="5.0">'01_HOOFD_1',</text>
<text x="134.16666666666666" y="772.5" alignment-baseline="hanging" font-size="5.0">'01_HOOFD_4',</text>
<text x="134.16666666666666" y="777.5" alignment-baseline="hanging" font-size="5.0">'01_HOOFD_5'})</text>
<line x1="165.0" y1="695" x2="165.0" y2="625" style="stroke:rgb(100,255,100);stroke-width:2" />
<rect x="134.16666666666666" y="645.0" width="61.66666666666667" height="30.0" fill="898989" stroke="black" stroke-width="1" />
<text x="134.16666666666666" y="645.0" alignment-baseline="hanging" font-size="5.0"> (`at:phase` ELEMENT</text>
<text x="134.16666666666666" y="650.0" alignment-baseline="hanging" font-size="5.0">OF {'01_HOOFD_0',</text>
<text x="134.16666666666666" y="655.0" alignment-baseline="hanging" font-size="5.0">'01_HOOFD_1',</text>
<text x="134.16666666666666" y="660.0" alignment-baseline="hanging" font-size="5.0">'01_HOOFD_3',</text>
<text x="134.16666666666666" y="665.0" alignment-baseline="hanging" font-size="5.0">'01_HOOFD_4',</text>
<text x="134.16666666666666" y="670.0" alignment-baseline="hanging" font-size="5.0">'01_HOOFD_5'})</text>
<line x1="165.0" y1="585" x2="165.0" y2="515" style="stroke:rgb(100,255,100);stroke-width:2" />
<rect x="134.16666666666666" y="532.5" width="61.66666666666667" height="35.0" fill="898989" stroke="black" stroke-width="1" />
<text x="134.16666666666666" y="532.5" alignment-baseline="hanging" font-size="5.0"> (`at:phase` ELEMENT</text>
<text x="134.16666666666666" y="537.5" alignment-baseline="hanging" font-size="5.0">OF {'01_HOOFD_0',</text>
<text x="134.16666666666666" y="542.5" alignment-baseline="hanging" font-size="5.0">'01_HOOFD_1',</text>
<text x="134.16666666666666" y="547.5" alignment-baseline="hanging" font-size="5.0">'01_HOOFD_2',</text>
<text x="134.16666666666666" y="552.5" alignment-baseline="hanging" font-size="5.0">'01_HOOFD_3',</text>
<text x="134.16666666666666" y="557.5" alignment-baseline="hanging" font-size="5.0">'01_HOOFD_4',</text>
<text x="134.16666666666666" y="562.5" alignment-baseline="hanging" font-size="5.0">'01_HOOFD_5'})</text>
<line x1="165.0" y1="475" x2="165.0" y2="405" style="stroke:rgb(100,255,100);stroke-width:2" />
<rect x="134.16666666666666" y="437.5" width="61.66666666666667" height="5.0" fill="898989" stroke="black" stroke-width="1" />
<line x1="165.0" y1="365" x2="165.0" y2="295" style="stroke:rgb(100,255,100);stroke-width:2" />
<rect x="134.16666666666666" y="310.0" width="61.66666666666667" height="40.0" fill="898989" stroke="black" stroke-width="1" />
<text x="134.16666666666666" y="310.0" alignment-baseline="hanging" font-size="5.0"> (`at:phase` ELEMENT</text>
<text x="134.16666666666666" y="315.0" alignment-baseline="hanging" font-size="5.0">OF {'01_HOOFD_0',</text>
<text x="134.16666666666666" y="320.0" alignment-baseline="hanging" font-size="5.0">'01_HOOFD_1',</text>
<text x="134.16666666666666" y="325.0" alignment-baseline="hanging" font-size="5.0">'01_HOOFD_2',</text>
<text x="134.16666666666666" y="330.0" alignment-baseline="hanging" font-size="5.0">'01_HOOFD_3',</text>
<text x="134.16666666666666" y="335.0" alignment-baseline="hanging" font-size="5.0">'01_HOOFD_4',</text>
<text x="134.16666666666666" y="340.0" alignment-baseline="hanging" font-size="5.0">'01_HOOFD_5',</text>
<text x="134.16666666666666" y="345.0" alignment-baseline="hanging" font-size="5.0">'01_HOOFD_8'})</text>
<line x1="165.0" y1="255" x2="165.0" y2="185" style="stroke:rgb(100,255,100);stroke-width:2" />
<rect x="134.16666666666666" y="217.5" width="61.66666666666667" height="5.0" fill="898989" stroke="black" stroke-width="1" />
<line x1="165.0" y1="145" x2="477.8125" y2="75" style="stroke:rgb(100,255,100);stroke-width:2" />
<rect x="290.5729166666667" y="105.0" width="61.66666666666667" height="10.0" fill="898989" stroke="black" stroke-width="1" />
<text x="290.5729166666667" y="105.0" alignment-baseline="hanging" font-size="5.0"> (`tt:weekday`</text>
<text x="290.5729166666667" y="110.0" alignment-baseline="hanging" font-size="5.0">ELEMENT OF {'Sun'})</text>
<line x1="295.0" y1="805" x2="295.0" y2="735" style="stroke:rgb(100,255,100);stroke-width:2" />
<rect x="264.1666666666667" y="767.5" width="61.66666666666667" height="5.0" fill="898989" stroke="black" stroke-width="1" />
<line x1="295.0" y1="695" x2="295.0" y2="625" style="stroke:rgb(100,255,100);stroke-width:2" />
<rect x="264.1666666666667" y="657.5" width="61.66666666666667" height="5.0" fill="898989" stroke="black" stroke-width="1" />
<line x1="295.0" y1="585" x2="295.0" y2="515" style="stroke:rgb(100,255,100);stroke-width:2" />
<rect x="264.1666666666667" y="547.5" width="61.66666666666667" height="5.0" fill="898989" stroke="black" stroke-width="1" />
<line x1="295.0" y1="475" x2="295.0" y2="405" style="stroke:rgb(100,255,100);stroke-width:2" />
<rect x="264.1666666666667" y="435.0" width="61.66666666666667" height="10.0" fill="898989" stroke="black" stroke-width="1" />
<text x="264.1666666666667" y="435.0" alignment-baseline="hanging" font-size="5.0"> (`at:phase` ELEMENT</text>
<text x="264.1666666666667" y="440.0" alignment-baseline="hanging" font-size="5.0">OF {'01_HOOFD_7'})</text>
<line x1="295.0" y1="365" x2="416.875" y2="295" style="stroke:rgb(100,255,100);stroke-width:2" />
<rect x="325.1041666666667" y="322.5" width="61.66666666666667" height="15.0" fill="898989" stroke="black" stroke-width="1" />
<text x="325.1041666666667" y="322.5" alignment-baseline="hanging" font-size="5.0"> (`at:phase` ELEMENT</text>
<text x="325.1041666666667" y="327.5" alignment-baseline="hanging" font-size="5.0">OF {'01_HOOFD_6',</text>
<text x="325.1041666666667" y="332.5" alignment-baseline="hanging" font-size="5.0">'01_HOOFD_7'})</text>
<line x1="425.0" y1="805" x2="425.0" y2="735" style="stroke:rgb(100,255,100);stroke-width:2" />
<rect x="394.1666666666667" y="767.5" width="61.66666666666667" height="5.0" fill="898989" stroke="black" stroke-width="1" />
<line x1="425.0" y1="695" x2="425.0" y2="625" style="stroke:rgb(100,255,100);stroke-width:2" />
<rect x="394.1666666666667" y="657.5" width="61.66666666666667" height="5.0" fill="898989" stroke="black" stroke-width="1" />
<line x1="425.0" y1="585" x2="538.75" y2="515" style="stroke:rgb(100,255,100);stroke-width:2" />
<rect x="451.0416666666667" y="545.0" width="61.66666666666667" height="10.0" fill="898989" stroke="black" stroke-width="1" />
<text x="451.0416666666667" y="545.0" alignment-baseline="hanging" font-size="5.0"> (`at:phase` ELEMENT</text>
<text x="451.0416666666667" y="550.0" alignment-baseline="hanging" font-size="5.0">OF {'01_HOOFD_8'})</text>
<line x1="555.0" y1="805" x2="555.0" y2="735" style="stroke:rgb(100,255,100);stroke-width:2" />
<rect x="524.1666666666666" y="767.5" width="61.66666666666667" height="5.0" fill="898989" stroke="black" stroke-width="1" />
<line x1="555.0" y1="695" x2="652.5" y2="625" style="stroke:rgb(100,255,100);stroke-width:2" />
<rect x="572.9166666666666" y="655.0" width="61.66666666666667" height="10.0" fill="898989" stroke="black" stroke-width="1" />
<text x="572.9166666666666" y="655.0" alignment-baseline="hanging" font-size="5.0"> (`at:phase` ELEMENT</text>
<text x="572.9166666666666" y="660.0" alignment-baseline="hanging" font-size="5.0">OF {'01_HOOFD_2'})</text>
<line x1="685.0" y1="805" x2="750.0" y2="735" style="stroke:rgb(100,255,100);stroke-width:2" />
<rect x="686.6666666666666" y="765.0" width="61.66666666666667" height="10.0" fill="898989" stroke="black" stroke-width="1" />
<text x="686.6666666666666" y="765.0" alignment-baseline="hanging" font-size="5.0"> (`at:phase` ELEMENT</text>
<text x="686.6666666666666" y="770.0" alignment-baseline="hanging" font-size="5.0">OF {'01_HOOFD_3'})</text>
<line x1="815.0" y1="805" x2="750.0" y2="735" style="stroke:rgb(100,255,100);stroke-width:2" />
<rect x="751.6666666666666" y="757.5" width="61.66666666666667" height="25.0" fill="898989" stroke="black" stroke-width="1" />
<text x="751.6666666666666" y="757.5" alignment-baseline="hanging" font-size="5.0"> (`at:phase` ELEMENT</text>
<text x="751.6666666666666" y="762.5" alignment-baseline="hanging" font-size="5.0">OF {'01_HOOFD_0',</text>
<text x="751.6666666666666" y="767.5" alignment-baseline="hanging" font-size="5.0">'01_HOOFD_1',</text>
<text x="751.6666666666666" y="772.5" alignment-baseline="hanging" font-size="5.0">'01_HOOFD_4',</text>
<text x="751.6666666666666" y="777.5" alignment-baseline="hanging" font-size="5.0">'01_HOOFD_5'})</text>
<line x1="750.0" y1="695" x2="652.5" y2="625" style="stroke:rgb(100,255,100);stroke-width:2" />
<rect x="670.4166666666666" y="645.0" width="61.66666666666667" height="30.0" fill="898989" stroke="black" stroke-width="1" />
<text x="670.4166666666666" y="645.0" alignment-baseline="hanging" font-size="5.0"> (`at:phase` ELEMENT</text>
<text x="670.4166666666666" y="650.0" alignment-baseline="hanging" font-size="5.0">OF {'01_HOOFD_0',</text>
<text x="670.4166666666666" y="655.0" alignment-baseline="hanging" font-size="5.0">'01_HOOFD_1',</text>
<text x="670.4166666666666" y="660.0" alignment-baseline="hanging" font-size="5.0">'01_HOOFD_3',</text>
<text x="670.4166666666666" y="665.0" alignment-baseline="hanging" font-size="5.0">'01_HOOFD_4',</text>
<text x="670.4166666666666" y="670.0" alignment-baseline="hanging" font-size="5.0">'01_HOOFD_5'})</text>
<line x1="652.5" y1="585" x2="538.75" y2="515" style="stroke:rgb(100,255,100);stroke-width:2" />
<rect x="564.7916666666666" y="532.5" width="61.66666666666667" height="35.0" fill="898989" stroke="black" stroke-width="1" />
<text x="564.7916666666666" y="532.5" alignment-baseline="hanging" font-size="5.0"> (`at:phase` ELEMENT</text>
<text x="564.7916666666666" y="537.5" alignment-baseline="hanging" font-size="5.0">OF {'01_HOOFD_0',</text>
<text x="564.7916666666666" y="542.5" alignment-baseline="hanging" font-size="5.0">'01_HOOFD_1',</text>
<text x="564.7916666666666" y="547.5" alignment-baseline="hanging" font-size="5.0">'01_HOOFD_2',</text>
<text x="564.7916666666666" y="552.5" alignment-baseline="hanging" font-size="5.0">'01_HOOFD_3',</text>
<text x="564.7916666666666" y="557.5" alignment-baseline="hanging" font-size="5.0">'01_HOOFD_4',</text>
<text x="564.7916666666666" y="562.5" alignment-baseline="hanging" font-size="5.0">'01_HOOFD_5'})</text>
<line x1="538.75" y1="475" x2="538.75" y2="405" style="stroke:rgb(100,255,100);stroke-width:2" />
<rect x="507.9166666666667" y="437.5" width="61.66666666666667" height="5.0" fill="898989" stroke="black" stroke-width="1" />
<line x1="538.75" y1="365" x2="416.875" y2="295" style="stroke:rgb(100,255,100);stroke-width:2" />
<rect x="446.9791666666667" y="310.0" width="61.66666666666667" height="40.0" fill="898989" stroke="black" stroke-width="1" />
<text x="446.9791666666667" y="310.0" alignment-baseline="hanging" font-size="5.0"> (`at:phase` ELEMENT</text>
<text x="446.9791666666667" y="315.0" alignment-baseline="hanging" font-size="5.0">OF {'01_HOOFD_0',</text>
<text x="446.9791666666667" y="320.0" alignment-baseline="hanging" font-size="5.0">'01_HOOFD_1',</text>
<text x="446.9791666666667" y="325.0" alignment-baseline="hanging" font-size="5.0">'01_HOOFD_2',</text>
<text x="446.9791666666667" y="330.0" alignment-baseline="hanging" font-size="5.0">'01_HOOFD_3',</text>
<text x="446.9791666666667" y="335.0" alignment-baseline="hanging" font-size="5.0">'01_HOOFD_4',</text>
<text x="446.9791666666667" y="340.0" alignment-baseline="hanging" font-size="5.0">'01_HOOFD_5',</text>
<text x="446.9791666666667" y="345.0" alignment-baseline="hanging" font-size="5.0">'01_HOOFD_8'})</text>
<line x1="416.875" y1="255" x2="790.625" y2="185" style="stroke:rgb(100,255,100);stroke-width:2" />
<rect x="572.9166666666666" y="215.0" width="61.66666666666667" height="10.0" fill="898989" stroke="black" stroke-width="1" />
<text x="572.9166666666666" y="215.0" alignment-baseline="hanging" font-size="5.0"> (`tt:weekday`</text>
<text x="572.9166666666666" y="220.0" alignment-baseline="hanging" font-size="5.0">ELEMENT OF {'Sat'})</text>
<line x1="945.0" y1="805" x2="945.0" y2="735" style="stroke:rgb(100,255,100);stroke-width:2" />
<rect x="914.1666666666666" y="767.5" width="61.66666666666667" height="5.0" fill="898989" stroke="black" stroke-width="1" />
<line x1="945.0" y1="695" x2="945.0" y2="625" style="stroke:rgb(100,255,100);stroke-width:2" />
<rect x="914.1666666666666" y="657.5" width="61.66666666666667" height="5.0" fill="898989" stroke="black" stroke-width="1" />
<line x1="945.0" y1="585" x2="945.0" y2="515" style="stroke:rgb(100,255,100);stroke-width:2" />
<rect x="914.1666666666666" y="547.5" width="61.66666666666667" height="5.0" fill="898989" stroke="black" stroke-width="1" />
<line x1="945.0" y1="475" x2="1010.0" y2="405" style="stroke:rgb(100,255,100);stroke-width:2" />
<rect x="946.6666666666666" y="435.0" width="61.66666666666667" height="10.0" fill="898989" stroke="black" stroke-width="1" />
<text x="946.6666666666666" y="435.0" alignment-baseline="hanging" font-size="5.0"> (`at:phase` ELEMENT</text>
<text x="946.6666666666666" y="440.0" alignment-baseline="hanging" font-size="5.0">OF {'01_HOOFD_7'})</text>
<line x1="1075.0" y1="805" x2="1075.0" y2="735" style="stroke:rgb(100,255,100);stroke-width:2" />
<rect x="1044.1666666666667" y="767.5" width="61.66666666666667" height="5.0" fill="898989" stroke="black" stroke-width="1" />
<line x1="1075.0" y1="695" x2="1075.0" y2="625" style="stroke:rgb(100,255,100);stroke-width:2" />
<rect x="1044.1666666666667" y="657.5" width="61.66666666666667" height="5.0" fill="898989" stroke="black" stroke-width="1" />
<line x1="1075.0" y1="585" x2="1075.0" y2="515" style="stroke:rgb(100,255,100);stroke-width:2" />
<rect x="1044.1666666666667" y="547.5" width="61.66666666666667" height="5.0" fill="898989" stroke="black" stroke-width="1" />
<line x1="1075.0" y1="475" x2="1010.0" y2="405" style="stroke:rgb(100,255,100);stroke-width:2" />
<rect x="1011.6666666666666" y="435.0" width="61.66666666666667" height="10.0" fill="898989" stroke="black" stroke-width="1" />
<text x="1011.6666666666666" y="435.0" alignment-baseline="hanging" font-size="5.0"> (`at:phase` ELEMENT</text>
<text x="1011.6666666666666" y="440.0" alignment-baseline="hanging" font-size="5.0">OF {'01_HOOFD_6'})</text>
<line x1="1010.0" y1="365" x2="1164.375" y2="295" style="stroke:rgb(100,255,100);stroke-width:2" />
<rect x="1056.3541666666667" y="322.5" width="61.66666666666667" height="15.0" fill="898989" stroke="black" stroke-width="1" />
<text x="1056.3541666666667" y="322.5" alignment-baseline="hanging" font-size="5.0"> (`at:phase` ELEMENT</text>
<text x="1056.3541666666667" y="327.5" alignment-baseline="hanging" font-size="5.0">OF {'01_HOOFD_6',</text>
<text x="1056.3541666666667" y="332.5" alignment-baseline="hanging" font-size="5.0">'01_HOOFD_7'})</text>
<line x1="1205.0" y1="805" x2="1205.0" y2="735" style="stroke:rgb(100,255,100);stroke-width:2" />
<rect x="1174.1666666666667" y="767.5" width="61.66666666666667" height="5.0" fill="898989" stroke="black" stroke-width="1" />
<line x1="1205.0" y1="695" x2="1205.0" y2="625" style="stroke:rgb(100,255,100);stroke-width:2" />
<rect x="1174.1666666666667" y="657.5" width="61.66666666666667" height="5.0" fill="898989" stroke="black" stroke-width="1" />
<line x1="1205.0" y1="585" x2="1318.75" y2="515" style="stroke:rgb(100,255,100);stroke-width:2" />
<rect x="1231.0416666666667" y="545.0" width="61.66666666666667" height="10.0" fill="898989" stroke="black" stroke-width="1" />
<text x="1231.0416666666667" y="545.0" alignment-baseline="hanging" font-size="5.0"> (`at:phase` ELEMENT</text>
<text x="1231.0416666666667" y="550.0" alignment-baseline="hanging" font-size="5.0">OF {'01_HOOFD_8'})</text>
<line x1="1335.0" y1="805" x2="1335.0" y2="735" style="stroke:rgb(100,255,100);stroke-width:2" />
<rect x="1304.1666666666667" y="767.5" width="61.66666666666667" height="5.0" fill="898989" stroke="black" stroke-width="1" />
<line x1="1335.0" y1="695" x2="1432.5" y2="625" style="stroke:rgb(100,255,100);stroke-width:2" />
<rect x="1352.9166666666667" y="655.0" width="61.66666666666667" height="10.0" fill="898989" stroke="black" stroke-width="1" />
<text x="1352.9166666666667" y="655.0" alignment-baseline="hanging" font-size="5.0"> (`at:phase` ELEMENT</text>
<text x="1352.9166666666667" y="660.0" alignment-baseline="hanging" font-size="5.0">OF {'01_HOOFD_2'})</text>
<line x1="1465.0" y1="805" x2="1530.0" y2="735" style="stroke:rgb(100,255,100);stroke-width:2" />
<rect x="1466.6666666666667" y="765.0" width="61.66666666666667" height="10.0" fill="898989" stroke="black" stroke-width="1" />
<text x="1466.6666666666667" y="765.0" alignment-baseline="hanging" font-size="5.0"> (`at:phase` ELEMENT</text>
<text x="1466.6666666666667" y="770.0" alignment-baseline="hanging" font-size="5.0">OF {'01_HOOFD_3'})</text>
<line x1="1595.0" y1="805" x2="1530.0" y2="735" style="stroke:rgb(100,255,100);stroke-width:2" />
<rect x="1531.6666666666667" y="757.5" width="61.66666666666667" height="25.0" fill="898989" stroke="black" stroke-width="1" />
<text x="1531.6666666666667" y="757.5" alignment-baseline="hanging" font-size="5.0"> (`at:phase` ELEMENT</text>
<text x="1531.6666666666667" y="762.5" alignment-baseline="hanging" font-size="5.0">OF {'01_HOOFD_0',</text>
<text x="1531.6666666666667" y="767.5" alignment-baseline="hanging" font-size="5.0">'01_HOOFD_1',</text>
<text x="1531.6666666666667" y="772.5" alignment-baseline="hanging" font-size="5.0">'01_HOOFD_4',</text>
<text x="1531.6666666666667" y="777.5" alignment-baseline="hanging" font-size="5.0">'01_HOOFD_5'})</text>
<line x1="1530.0" y1="695" x2="1432.5" y2="625" style="stroke:rgb(100,255,100);stroke-width:2" />
<rect x="1450.4166666666667" y="645.0" width="61.66666666666667" height="30.0" fill="898989" stroke="black" stroke-width="1" />
<text x="1450.4166666666667" y="645.0" alignment-baseline="hanging" font-size="5.0"> (`at:phase` ELEMENT</text>
<text x="1450.4166666666667" y="650.0" alignment-baseline="hanging" font-size="5.0">OF {'01_HOOFD_0',</text>
<text x="1450.4166666666667" y="655.0" alignment-baseline="hanging" font-size="5.0">'01_HOOFD_1',</text>
<text x="1450.4166666666667" y="660.0" alignment-baseline="hanging" font-size="5.0">'01_HOOFD_3',</text>
<text x="1450.4166666666667" y="665.0" alignment-baseline="hanging" font-size="5.0">'01_HOOFD_4',</text>
<text x="1450.4166666666667" y="670.0" alignment-baseline="hanging" font-size="5.0">'01_HOOFD_5'})</text>
<line x1="1432.5" y1="585" x2="1318.75" y2="515" style="stroke:rgb(100,255,100);stroke-width:2" />
<rect x="1344.7916666666667" y="532.5" width="61.66666666666667" height="35.0" fill="898989" stroke="black" stroke-width="1" />
<text x="1344.7916666666667" y="532.5" alignment-baseline="hanging" font-size="5.0"> (`at:phase` ELEMENT</text>
<text x="1344.7916666666667" y="537.5" alignment-baseline="hanging" font-size="5.0">OF {'01_HOOFD_0',</text>
<text x="1344.7916666666667" y="542.5" alignment-baseline="hanging" font-size="5.0">'01_HOOFD_1',</text>
<text x="1344.7916666666667" y="547.5" alignment-baseline="hanging" font-size="5.0">'01_HOOFD_2',</text>
<text x="1344.7916666666667" y="552.5" alignment-baseline="hanging" font-size="5.0">'01_HOOFD_3',</text>
<text x="1344.7916666666667" y="557.5" alignment-baseline="hanging" font-size="5.0">'01_HOOFD_4',</text>
<text x="1344.7916666666667" y="562.5" alignment-baseline="hanging" font-size="5.0">'01_HOOFD_5'})</text>
<line x1="1318.75" y1="475" x2="1318.75" y2="405" style="stroke:rgb(100,255,100);stroke-width:2" />
<rect x="1287.9166666666667" y="437.5" width="61.66666666666667" height="5.0" fill="898989" stroke="black" stroke-width="1" />
<line x1="1318.75" y1="365" x2="1164.375" y2="295" style="stroke:rgb(100,255,100);stroke-width:2" />
<rect x="1210.7291666666667" y="310.0" width="61.66666666666667" height="40.0" fill="898989" stroke="black" stroke-width="1" />
<text x="1210.7291666666667" y="310.0" alignment-baseline="hanging" font-size="5.0"> (`at:phase` ELEMENT</text>
<text x="1210.7291666666667" y="315.0" alignment-baseline="hanging" font-size="5.0">OF {'01_HOOFD_0',</text>
<text x="1210.7291666666667" y="320.0" alignment-baseline="hanging" font-size="5.0">'01_HOOFD_1',</text>
<text x="1210.7291666666667" y="325.0" alignment-baseline="hanging" font-size="5.0">'01_HOOFD_2',</text>
<text x="1210.7291666666667" y="330.0" alignment-baseline="hanging" font-size="5.0">'01_HOOFD_3',</text>
<text x="1210.7291666666667" y="335.0" alignment-baseline="hanging" font-size="5.0">'01_HOOFD_4',</text>
<text x="1210.7291666666667" y="340.0" alignment-baseline="hanging" font-size="5.0">'01_HOOFD_5',</text>
<text x="1210.7291666666667" y="345.0" alignment-baseline="hanging" font-size="5.0">'01_HOOFD_8'})</text>
<line x1="1164.375" y1="255" x2="790.625" y2="185" style="stroke:rgb(100,255,100);stroke-width:2" />
<rect x="946.6666666666666" y="210.0" width="61.66666666666667" height="20.0" fill="898989" stroke="black" stroke-width="1" />
<text x="946.6666666666666" y="210.0" alignment-baseline="hanging" font-size="5.0"> (`tt:weekday`</text>
<text x="946.6666666666666" y="215.0" alignment-baseline="hanging" font-size="5.0">ELEMENT OF {'Fri',</text>
<text x="946.6666666666666" y="220.0" alignment-baseline="hanging" font-size="5.0">'Mon', 'Thu', 'Tue',</text>
<text x="946.6666666666666" y="225.0" alignment-baseline="hanging" font-size="5.0">'Wed'})</text>
<line x1="790.625" y1="145" x2="477.8125" y2="75" style="stroke:rgb(100,255,100);stroke-width:2" />
<rect x="603.3854166666666" y="100.0" width="61.66666666666667" height="20.0" fill="898989" stroke="black" stroke-width="1" />
<text x="603.3854166666666" y="100.0" alignment-baseline="hanging" font-size="5.0"> (`tt:weekday`</text>
<text x="603.3854166666666" y="105.0" alignment-baseline="hanging" font-size="5.0">ELEMENT OF {'Fri',</text>
<text x="603.3854166666666" y="110.0" alignment-baseline="hanging" font-size="5.0">'Mon', 'Sat', 'Thu',</text>
<text x="603.3854166666666" y="115.0" alignment-baseline="hanging" font-size="5.0">'Tue', 'Wed'})</text>
<rect x="115" y="805" width="100" height="40" rx="5" ry="5" style="fill:#DBEEF4;stroke-width:3;stroke:rgb(0,0,0)"
/><text x="165.0" y="815.0" font-size="10" text-anchor="middle" alignment-baseline="middle">label=3099</text>
<text x="165.0" y="835.0" font-size="10" text-anchor="middle" alignment-baseline="middle">n_items=149</text>
<rect x="115" y="695" width="100" height="40" rx="5" ry="5" style="fill:#DBEEF4;stroke-width:3;stroke:rgb(0,0,0)"
/><text x="165.0" y="705.0" font-size="10" text-anchor="middle" alignment-baseline="middle">label=2776</text>
<text x="165.0" y="725.0" font-size="10" text-anchor="middle" alignment-baseline="middle">n_items=149</text>
<rect x="115" y="585" width="100" height="40" rx="5" ry="5" style="fill:#DBEEF4;stroke-width:3;stroke:rgb(0,0,0)"
/><text x="165.0" y="595.0" font-size="10" text-anchor="middle" alignment-baseline="middle">label=2407</text>
<text x="165.0" y="615.0" font-size="10" text-anchor="middle" alignment-baseline="middle">n_items=149</text>
<rect x="115" y="475" width="100" height="40" rx="5" ry="5" style="fill:#DBEEF4;stroke-width:3;stroke:rgb(0,0,0)"
/><text x="165.0" y="485.0" font-size="10" text-anchor="middle" alignment-baseline="middle">label=1427</text>
<text x="165.0" y="505.0" font-size="10" text-anchor="middle" alignment-baseline="middle">n_items=149</text>
<rect x="115" y="365" width="100" height="40" rx="5" ry="5" style="fill:#DBEEF4;stroke-width:3;stroke:rgb(0,0,0)"
/><text x="165.0" y="375.0" font-size="10" text-anchor="middle" alignment-baseline="middle">label=1427</text>
<text x="165.0" y="395.0" font-size="10" text-anchor="middle" alignment-baseline="middle">n_items=149</text>
<rect x="115" y="255" width="100" height="40" rx="5" ry="5" style="fill:#DBEEF4;stroke-width:3;stroke:rgb(0,0,0)"
/><text x="165.0" y="265.0" font-size="10" text-anchor="middle" alignment-baseline="middle">label=339</text>
<text x="165.0" y="285.0" font-size="10" text-anchor="middle" alignment-baseline="middle">n_items=149</text>
<rect x="115" y="145" width="100" height="40" rx="5" ry="5" style="fill:#DBEEF4;stroke-width:3;stroke:rgb(0,0,0)"
/><text x="165.0" y="155.0" font-size="10" text-anchor="middle" alignment-baseline="middle">label=339</text>
<text x="165.0" y="175.0" font-size="10" text-anchor="middle" alignment-baseline="middle">n_items=149</text>
<rect x="245" y="805" width="100" height="40" rx="5" ry="5" style="fill:#DBEEF4;stroke-width:3;stroke:rgb(0,0,0)"
/><text x="295.0" y="815.0" font-size="10" text-anchor="middle" alignment-baseline="middle">label=1902</text>
<text x="295.0" y="835.0" font-size="10" text-anchor="middle" alignment-baseline="middle">n_items=2</text>
<rect x="245" y="695" width="100" height="40" rx="5" ry="5" style="fill:#DBEEF4;stroke-width:3;stroke:rgb(0,0,0)"
/><text x="295.0" y="705.0" font-size="10" text-anchor="middle" alignment-baseline="middle">label=1902</text>
<text x="295.0" y="725.0" font-size="10" text-anchor="middle" alignment-baseline="middle">n_items=2</text>
<rect x="245" y="585" width="100" height="40" rx="5" ry="5" style="fill:#DBEEF4;stroke-width:3;stroke:rgb(0,0,0)"
/><text x="295.0" y="595.0" font-size="10" text-anchor="middle" alignment-baseline="middle">label=1902</text>
<text x="295.0" y="615.0" font-size="10" text-anchor="middle" alignment-baseline="middle">n_items=2</text>
<rect x="245" y="475" width="100" height="40" rx="5" ry="5" style="fill:#DBEEF4;stroke-width:3;stroke:rgb(0,0,0)"
/><text x="295.0" y="485.0" font-size="10" text-anchor="middle" alignment-baseline="middle">label=1902</text>
<text x="295.0" y="505.0" font-size="10" text-anchor="middle" alignment-baseline="middle">n_items=2</text>
<rect x="245" y="365" width="100" height="40" rx="5" ry="5" style="fill:#DBEEF4;stroke-width:3;stroke:rgb(0,0,0)"
/><text x="295.0" y="375.0" font-size="10" text-anchor="middle" alignment-baseline="middle">label=1428</text>
<text x="295.0" y="395.0" font-size="10" text-anchor="middle" alignment-baseline="middle">n_items=2</text>
<rect x="375" y="805" width="100" height="40" rx="5" ry="5" style="fill:#DBEEF4;stroke-width:3;stroke:rgb(0,0,0)"
/><text x="425.0" y="815.0" font-size="10" text-anchor="middle" alignment-baseline="middle">label=2408</text>
<text x="425.0" y="835.0" font-size="10" text-anchor="middle" alignment-baseline="middle">n_items=10</text>
<rect x="375" y="695" width="100" height="40" rx="5" ry="5" style="fill:#DBEEF4;stroke-width:3;stroke:rgb(0,0,0)"
/><text x="425.0" y="705.0" font-size="10" text-anchor="middle" alignment-baseline="middle">label=2408</text>
<text x="425.0" y="725.0" font-size="10" text-anchor="middle" alignment-baseline="middle">n_items=10</text>
<rect x="375" y="585" width="100" height="40" rx="5" ry="5" style="fill:#DBEEF4;stroke-width:3;stroke:rgb(0,0,0)"
/><text x="425.0" y="595.0" font-size="10" text-anchor="middle" alignment-baseline="middle">label=2408</text>
<text x="425.0" y="615.0" font-size="10" text-anchor="middle" alignment-baseline="middle">n_items=10</text>
<rect x="505" y="805" width="100" height="40" rx="5" ry="5" style="fill:#DBEEF4;stroke-width:3;stroke:rgb(0,0,0)"
/><text x="555.0" y="815.0" font-size="10" text-anchor="middle" alignment-baseline="middle">label=2777</text>
<text x="555.0" y="835.0" font-size="10" text-anchor="middle" alignment-baseline="middle">n_items=41</text>
<rect x="505" y="695" width="100" height="40" rx="5" ry="5" style="fill:#DBEEF4;stroke-width:3;stroke:rgb(0,0,0)"
/><text x="555.0" y="705.0" font-size="10" text-anchor="middle" alignment-baseline="middle">label=2777</text>
<text x="555.0" y="725.0" font-size="10" text-anchor="middle" alignment-baseline="middle">n_items=41</text>
<rect x="635" y="805" width="100" height="40" rx="5" ry="5" style="fill:#DBEEF4;stroke-width:3;stroke:rgb(0,0,0)"
/><text x="685.0" y="815.0" font-size="10" text-anchor="middle" alignment-baseline="middle">label=3100</text>
<text x="685.0" y="835.0" font-size="10" text-anchor="middle" alignment-baseline="middle">n_items=49</text>
<rect x="765" y="805" width="100" height="40" rx="5" ry="5" style="fill:#DBEEF4;stroke-width:3;stroke:rgb(0,0,0)"
/><text x="815.0" y="815.0" font-size="10" text-anchor="middle" alignment-baseline="middle">label=3101</text>
<text x="815.0" y="835.0" font-size="10" text-anchor="middle" alignment-baseline="middle">n_items=778</text>
<rect x="700.0" y="695" width="100" height="40" rx="5" ry="5" style="fill:#DBEEF4;stroke-width:3;stroke:rgb(0,0,0)"
/><text x="750.0" y="705.0" font-size="10" text-anchor="middle" alignment-baseline="middle">label=2778</text>
<text x="750.0" y="725.0" font-size="10" text-anchor="middle" alignment-baseline="middle">n_items=827</text>
<rect x="602.5" y="585" width="100" height="40" rx="5" ry="5" style="fill:#DBEEF4;stroke-width:3;stroke:rgb(0,0,0)"
/><text x="652.5" y="595.0" font-size="10" text-anchor="middle" alignment-baseline="middle">label=2409</text>
<text x="652.5" y="615.0" font-size="10" text-anchor="middle" alignment-baseline="middle">n_items=868</text>
<rect x="488.75" y="475" width="100" height="40" rx="5" ry="5" style="fill:#DBEEF4;stroke-width:3;stroke:rgb(0,0,0)"
/><text x="538.75" y="485.0" font-size="10" text-anchor="middle" alignment-baseline="middle">label=1429</text>
<text x="538.75" y="505.0" font-size="10" text-anchor="middle" alignment-baseline="middle">n_items=878</text>
<rect x="488.75" y="365" width="100" height="40" rx="5" ry="5" style="fill:#DBEEF4;stroke-width:3;stroke:rgb(0,0,0)"
/><text x="538.75" y="375.0" font-size="10" text-anchor="middle" alignment-baseline="middle">label=1429</text>
<text x="538.75" y="395.0" font-size="10" text-anchor="middle" alignment-baseline="middle">n_items=878</text>
<rect x="366.875" y="255" width="100" height="40" rx="5" ry="5" style="fill:#DBEEF4;stroke-width:3;stroke:rgb(0,0,0)"
/><text x="416.875" y="265.0" font-size="10" text-anchor="middle" alignment-baseline="middle">label=796</text>
<text x="416.875" y="285.0" font-size="10" text-anchor="middle" alignment-baseline="middle">n_items=880</text>
<rect x="895" y="805" width="100" height="40" rx="5" ry="5" style="fill:#DBEEF4;stroke-width:3;stroke:rgb(0,0,0)"
/><text x="945.0" y="815.0" font-size="10" text-anchor="middle" alignment-baseline="middle">label=1903</text>
<text x="945.0" y="835.0" font-size="10" text-anchor="middle" alignment-baseline="middle">n_items=585</text>
<rect x="895" y="695" width="100" height="40" rx="5" ry="5" style="fill:#DBEEF4;stroke-width:3;stroke:rgb(0,0,0)"
/><text x="945.0" y="705.0" font-size="10" text-anchor="middle" alignment-baseline="middle">label=1903</text>
<text x="945.0" y="725.0" font-size="10" text-anchor="middle" alignment-baseline="middle">n_items=585</text>
<rect x="895" y="585" width="100" height="40" rx="5" ry="5" style="fill:#DBEEF4;stroke-width:3;stroke:rgb(0,0,0)"
/><text x="945.0" y="595.0" font-size="10" text-anchor="middle" alignment-baseline="middle">label=1903</text>
<text x="945.0" y="615.0" font-size="10" text-anchor="middle" alignment-baseline="middle">n_items=585</text>
<rect x="895" y="475" width="100" height="40" rx="5" ry="5" style="fill:#DBEEF4;stroke-width:3;stroke:rgb(0,0,0)"
/><text x="945.0" y="485.0" font-size="10" text-anchor="middle" alignment-baseline="middle">label=1903</text>
<text x="945.0" y="505.0" font-size="10" text-anchor="middle" alignment-baseline="middle">n_items=585</text>
<rect x="1025" y="805" width="100" height="40" rx="5" ry="5" style="fill:#DBEEF4;stroke-width:3;stroke:rgb(0,0,0)"
/><text x="1075.0" y="815.0" font-size="10" text-anchor="middle" alignment-baseline="middle">label=1904</text>
<text x="1075.0" y="835.0" font-size="10" text-anchor="middle" alignment-baseline="middle">n_items=15</text>
<rect x="1025" y="695" width="100" height="40" rx="5" ry="5" style="fill:#DBEEF4;stroke-width:3;stroke:rgb(0,0,0)"
/><text x="1075.0" y="705.0" font-size="10" text-anchor="middle" alignment-baseline="middle">label=1904</text>
<text x="1075.0" y="725.0" font-size="10" text-anchor="middle" alignment-baseline="middle">n_items=15</text>
<rect x="1025" y="585" width="100" height="40" rx="5" ry="5" style="fill:#DBEEF4;stroke-width:3;stroke:rgb(0,0,0)"
/><text x="1075.0" y="595.0" font-size="10" text-anchor="middle" alignment-baseline="middle">label=1904</text>
<text x="1075.0" y="615.0" font-size="10" text-anchor="middle" alignment-baseline="middle">n_items=15</text>
<rect x="1025" y="475" width="100" height="40" rx="5" ry="5" style="fill:#DBEEF4;stroke-width:3;stroke:rgb(0,0,0)"
/><text x="1075.0" y="485.0" font-size="10" text-anchor="middle" alignment-baseline="middle">label=1904</text>
<text x="1075.0" y="505.0" font-size="10" text-anchor="middle" alignment-baseline="middle">n_items=15</text>
<rect x="960.0" y="365" width="100" height="40" rx="5" ry="5" style="fill:#DBEEF4;stroke-width:3;stroke:rgb(0,0,0)"
/><text x="1010.0" y="375.0" font-size="10" text-anchor="middle" alignment-baseline="middle">label=1430</text>
<text x="1010.0" y="395.0" font-size="10" text-anchor="middle" alignment-baseline="middle">n_items=600</text>
<rect x="1155" y="805" width="100" height="40" rx="5" ry="5" style="fill:#DBEEF4;stroke-width:3;stroke:rgb(0,0,0)"
/><text x="1205.0" y="815.0" font-size="10" text-anchor="middle" alignment-baseline="middle">label=2410</text>
<text x="1205.0" y="835.0" font-size="10" text-anchor="middle" alignment-baseline="middle">n_items=6871</text>
<rect x="1155" y="695" width="100" height="40" rx="5" ry="5" style="fill:#DBEEF4;stroke-width:3;stroke:rgb(0,0,0)"
/><text x="1205.0" y="705.0" font-size="10" text-anchor="middle" alignment-baseline="middle">label=2410</text>
<text x="1205.0" y="725.0" font-size="10" text-anchor="middle" alignment-baseline="middle">n_items=6871</text>
<rect x="1155" y="585" width="100" height="40" rx="5" ry="5" style="fill:#DBEEF4;stroke-width:3;stroke:rgb(0,0,0)"
/><text x="1205.0" y="595.0" font-size="10" text-anchor="middle" alignment-baseline="middle">label=2410</text>
<text x="1205.0" y="615.0" font-size="10" text-anchor="middle" alignment-baseline="middle">n_items=6871</text>
<rect x="1285" y="805" width="100" height="40" rx="5" ry="5" style="fill:#DBEEF4;stroke-width:3;stroke:rgb(0,0,0)"
/><text x="1335.0" y="815.0" font-size="10" text-anchor="middle" alignment-baseline="middle">label=2779</text>
<text x="1335.0" y="835.0" font-size="10" text-anchor="middle" alignment-baseline="middle">n_items=16451</text>
<rect x="1285" y="695" width="100" height="40" rx="5" ry="5" style="fill:#DBEEF4;stroke-width:3;stroke:rgb(0,0,0)"
/><text x="1335.0" y="705.0" font-size="10" text-anchor="middle" alignment-baseline="middle">label=2779</text>
<text x="1335.0" y="725.0" font-size="10" text-anchor="middle" alignment-baseline="middle">n_items=16451</text>
<rect x="1415" y="805" width="100" height="40" rx="5" ry="5" style="fill:#DBEEF4;stroke-width:3;stroke:rgb(0,0,0)"
/><text x="1465.0" y="815.0" font-size="10" text-anchor="middle" alignment-baseline="middle">label=3102</text>
<text x="1465.0" y="835.0" font-size="10" text-anchor="middle" alignment-baseline="middle">n_items=17836</text>
<rect x="1545" y="805" width="100" height="40" rx="5" ry="5" style="fill:#DBEEF4;stroke-width:3;stroke:rgb(0,0,0)"
/><text x="1595.0" y="815.0" font-size="10" text-anchor="middle" alignment-baseline="middle">label=3103</text>
<text x="1595.0" y="835.0" font-size="10" text-anchor="middle" alignment-baseline="middle">n_items=150666</text>
<rect x="1480.0" y="695" width="100" height="40" rx="5" ry="5" style="fill:#DBEEF4;stroke-width:3;stroke:rgb(0,0,0)"
/><text x="1530.0" y="705.0" font-size="10" text-anchor="middle" alignment-baseline="middle">label=2780</text>
<text x="1530.0" y="725.0" font-size="10" text-anchor="middle" alignment-baseline="middle">n_items=168502</text>
<rect x="1382.5" y="585" width="100" height="40" rx="5" ry="5" style="fill:#DBEEF4;stroke-width:3;stroke:rgb(0,0,0)"
/><text x="1432.5" y="595.0" font-size="10" text-anchor="middle" alignment-baseline="middle">label=2411</text>
<text x="1432.5" y="615.0" font-size="10" text-anchor="middle" alignment-baseline="middle">n_items=184953</text>
<rect x="1268.75" y="475" width="100" height="40" rx="5" ry="5" style="fill:#DBEEF4;stroke-width:3;stroke:rgb(0,0,0)"
/><text x="1318.75" y="485.0" font-size="10" text-anchor="middle" alignment-baseline="middle">label=1431</text>
<text x="1318.75" y="505.0" font-size="10" text-anchor="middle" alignment-baseline="middle">n_items=191824</text>
<rect x="1268.75" y="365" width="100" height="40" rx="5" ry="5" style="fill:#DBEEF4;stroke-width:3;stroke:rgb(0,0,0)"
/><text x="1318.75" y="375.0" font-size="10" text-anchor="middle" alignment-baseline="middle">label=1431</text>
<text x="1318.75" y="395.0" font-size="10" text-anchor="middle" alignment-baseline="middle">n_items=191824</text>
<rect x="1114.375" y="255" width="100" height="40" rx="5" ry="5" style="fill:#DBEEF4;stroke-width:3;stroke:rgb(0,0,0)"
/><text x="1164.375" y="265.0" font-size="10" text-anchor="middle" alignment-baseline="middle">label=797</text>
<text x="1164.375" y="285.0" font-size="10" text-anchor="middle" alignment-baseline="middle">n_items=192424</text>
<rect x="740.625" y="145" width="100" height="40" rx="5" ry="5" style="fill:#DBEEF4;stroke-width:3;stroke:rgb(0,0,0)"
/><text x="790.625" y="155.0" font-size="10" text-anchor="middle" alignment-baseline="middle">label=340</text>
<text x="790.625" y="175.0" font-size="10" text-anchor="middle" alignment-baseline="middle">n_items=193304</text>
<rect x="427.8125" y="35" width="100" height="40" rx="5" ry="5" style="fill:#DBEEF4;stroke-width:3;stroke:rgb(0,0,0)"
/><text x="477.8125" y="45.0" font-size="10" text-anchor="middle" alignment-baseline="middle">label=0</text>
<text x="477.8125" y="65.0" font-size="10" text-anchor="middle" alignment-baseline="middle">n_items=193453</text>
  SVG not supported
</svg>