<svg height="440" width="360" style="background-color:white">
<line x1="0" y1="110" x2="360" y2="110" style="stroke:rgb(255,100,100);stroke-width:2" />
<line x1="100" y1="0" x2="100" y2="440" style="stroke:rgb(255,0,0);stroke-width:2" />
<text dominant-baseline = "central" font-size="10" style = "fill: rgb(0,0,255); " ><tspan x = "10" y = "37.0"> step=0
 </tspan><tspan x = "10" y = "49.0"> dis=0.00000
 </tspan><tspan x = "10" y = "61.0" > imp=1.00000
 </tspan><tspan x = "10" y = "73.0"> score=0.00000
 </tspan></text><text dominant-baseline = "central" font-size="10" style = "fill: rgb(0,0,255); " ><tspan x = "10" y = "147.0"> step=1
 </tspan><tspan x = "10" y = "159.0"> dis=0.00015
 </tspan><tspan x = "10" y = "171.0" > imp=0.99994
 </tspan><tspan x = "10" y = "183.0"> score=0.00031
 </tspan></text><text dominant-baseline = "central" font-size="10" style = "fill: rgb(0,0,255); " ><tspan x = "10" y = "257.0"> step=2
 </tspan><tspan x = "10" y = "269.0"> dis=0.00085
 </tspan><tspan x = "10" y = "281.0" > imp=0.99977
 </tspan><tspan x = "10" y = "293.0"> score=0.00169
 </tspan></text><line x1="165.0" y1="145" x2="230.0" y2="75" style="stroke:rgb(100,255,100);stroke-width:2" />
<rect x="166.66666666666666" y="105.0" width="61.66666666666667" height="10.0" fill="grey" stroke="black" stroke-width="1" />
<text x="166.66666666666666" y="105.0" alignment-baseline="hanging" font-size="5.0"> (`at:phase` ELEMENT</text>
<text x="166.66666666666666" y="110.0" alignment-baseline="hanging" font-size="5.0">OF {'01_HOOFD_6'})</text>
<line x1="295.0" y1="145" x2="230.0" y2="75" style="stroke:rgb(100,255,100);stroke-width:2" />
<rect x="231.66666666666666" y="87.5" width="61.66666666666667" height="45.0" fill="grey" stroke="black" stroke-width="1" />
<text x="231.66666666666666" y="87.5" alignment-baseline="hanging" font-size="5.0"> (`at:phase` ELEMENT</text>
<text x="231.66666666666666" y="92.5" alignment-baseline="hanging" font-size="5.0">OF {'01_HOOFD_0',</text>
<text x="231.66666666666666" y="97.5" alignment-baseline="hanging" font-size="5.0">'01_HOOFD_1',</text>
<text x="231.66666666666666" y="102.5" alignment-baseline="hanging" font-size="5.0">'01_HOOFD_2',</text>
<text x="231.66666666666666" y="107.5" alignment-baseline="hanging" font-size="5.0">'01_HOOFD_3',</text>
<text x="231.66666666666666" y="112.5" alignment-baseline="hanging" font-size="5.0">'01_HOOFD_4',</text>
<text x="231.66666666666666" y="117.5" alignment-baseline="hanging" font-size="5.0">'01_HOOFD_5',</text>
<text x="231.66666666666666" y="122.5" alignment-baseline="hanging" font-size="5.0">'01_HOOFD_7',</text>
<text x="231.66666666666666" y="127.5" alignment-baseline="hanging" font-size="5.0">'01_HOOFD_8'})</text>
<rect x="115" y="145" width="100" height="40" rx="5" ry="5" style="fill:rgb(173,216,230);stroke-width:3;stroke:rgb(0,0,0)"
/><text x="165.0" y="155.0" font-size="10" text-anchor="middle" alignment-baseline="middle">label=339</text>
<text x="165.0" y="175.0" font-size="10" text-anchor="middle" alignment-baseline="middle">n_items=15</text>
<rect x="245" y="145" width="100" height="40" rx="5" ry="5" style="fill:rgb(173,216,230);stroke-width:3;stroke:rgb(0,0,0)"
/><text x="295.0" y="155.0" font-size="10" text-anchor="middle" alignment-baseline="middle">label=340</text>
<text x="295.0" y="175.0" font-size="10" text-anchor="middle" alignment-baseline="middle">n_items=193438</text>
<rect x="180.0" y="35" width="100" height="40" rx="5" ry="5" style="fill:rgb(173,216,230);stroke-width:3;stroke:rgb(0,0,0)"
/><text x="230.0" y="45.0" font-size="10" text-anchor="middle" alignment-baseline="middle">label=0</text>
<text x="230.0" y="65.0" font-size="10" text-anchor="middle" alignment-baseline="middle">n_items=193453</text>
  SVG not supported
</svg>